{"glyphs":{"0":{"ha":1114,"x_min":50,"x_max":1064,"o":"m 916 852 q 990 778 916 852 q 1064 493 1064 704 q 916 135 1064 282 q 557 -11 768 -11 q 198 135 346 -11 q 50 493 50 282 q 198 852 50 704 q 557 1000 346 1000 q 916 852 768 1000 m 1024 374 l 269 879 q 127 710 178 811 q 76 493 76 608 q 217 153 76 293 q 557 13 357 13 q 851 113 721 13 q 1024 374 982 214 z "},"1":{"ha":404,"x_min":50,"x_max":354,"o":"m 354 0 l 50 0 l 50 792 l 354 999 l 354 0 z "},"2":{"ha":814,"x_min":50,"x_max":764,"o":"m 157 25 l 596 25 l 497 169 l 367 82 l 489 82 l 472 106 l 493 121 l 538 57 l 285 57 l 504 204 l 643 0 l 121 0 q 96 128 96 68 q 135 284 96 208 q 242 407 174 360 q 485 569 324 464 q 724 725 647 674 q 600 906 693 836 q 392 975 507 975 q 208 922 292 975 q 79 779 124 869 l 219 626 l 407 768 l 308 872 l 196 786 l 244 735 l 300 776 l 275 801 l 293 818 l 338 774 l 242 701 l 158 789 q 311 906 267 872 l 444 764 q 331 678 406 736 q 217 593 256 621 l 50 774 q 188 939 96 878 q 392 1000 279 1000 q 657 892 550 1000 q 764 625 764 783 q 717 450 764 532 q 592 315 671 368 l 157 25 z "},"3":{"ha":899,"x_min":50,"x_max":849,"o":"m 849 388 q 732 105 849 221 q 449 -11 615 -11 q 167 106 283 -11 q 50 388 50 222 l 75 388 q 114 220 75 299 q 224 88 153 142 l 811 482 q 678 683 781 606 q 449 761 576 761 l 440 783 l 643 963 l 188 963 l 188 764 l 354 764 l 354 896 l 264 896 l 264 836 l 321 836 l 321 810 l 239 810 l 239 921 l 379 921 l 379 739 l 161 739 l 161 988 l 675 988 l 683 965 l 481 785 q 742 659 636 774 q 849 388 849 544 z "},"4":{"ha":1119,"x_min":50,"x_max":1069,"o":"m 1069 324 l 782 324 l 782 0 l 464 0 l 464 324 l 50 324 l 464 988 l 782 988 l 782 349 l 1044 349 l 1044 557 l 850 557 l 850 415 l 967 415 l 967 490 l 924 490 l 924 447 l 899 447 l 899 515 l 992 515 l 992 390 l 825 390 l 825 582 l 1069 582 l 1069 324 m 464 349 l 464 947 l 94 349 l 464 349 z "},"5":{"ha":899,"x_min":50,"x_max":849,"o":"m 849 388 q 732 105 849 221 q 449 -11 615 -11 q 167 106 283 -11 q 50 388 50 222 l 75 388 q 114 220 75 299 q 224 88 153 142 l 811 482 q 676 686 778 613 q 438 760 574 760 q 185 651 310 760 l 185 988 l 736 988 l 597 782 l 378 931 l 631 931 l 586 867 l 567 881 q 582 904 572 893 l 461 904 l 592 817 l 689 963 l 210 963 l 210 706 q 457 786 315 786 q 733 667 618 786 q 849 388 849 549 z "},"6":{"ha":901,"x_min":50,"x_max":851,"o":"m 461 -7 q 161 120 272 -7 q 50 440 50 247 q 165 788 50 633 q 467 996 281 942 l 474 972 q 212 805 318 926 q 81 524 106 683 q 226 715 124 643 q 456 786 328 786 q 735 668 619 786 q 851 386 851 550 q 737 109 851 225 q 461 -7 622 -7 m 678 92 q 825 389 825 206 q 717 652 825 544 q 453 760 608 760 q 227 683 326 760 q 94 483 128 606 l 678 92 z "},"7":{"ha":953,"x_min":50,"x_max":903,"o":"m 903 988 l 383 0 l 50 0 l 557 961 l 163 961 l 163 754 l 357 754 l 357 896 l 240 896 l 240 821 l 282 821 l 282 863 l 307 863 l 307 794 l 215 794 l 215 921 l 382 921 l 382 729 l 138 729 l 138 988 l 903 988 z "},"8":{"ha":893,"x_min":50,"x_max":843,"o":"m 726 108 q 668 51 726 108 q 446 -7 610 -7 q 166 106 282 -7 q 50 383 50 219 q 101 587 50 494 q 249 733 153 679 q 239 794 239 782 q 299 940 239 879 q 446 1000 360 1000 q 591 940 531 1000 q 651 794 651 879 q 642 733 651 761 q 789 587 735 679 q 843 388 843 494 q 726 108 843 224 m 611 721 q 619 743 619 740 l 333 936 q 267 801 267 883 q 279 721 267 761 q 86 483 128 639 l 669 92 q 778 223 739 143 q 818 389 818 303 q 763 582 818 496 q 611 721 707 668 z "},"9":{"ha":900,"x_min":50,"x_max":850,"o":"m 850 549 q 735 200 850 354 q 433 -7 619 46 l 426 15 q 688 183 582 61 q 818 465 794 306 q 673 275 776 347 q 443 203 569 203 q 166 317 282 203 q 50 593 50 432 q 162 878 50 760 q 439 996 274 996 q 739 868 628 996 q 850 549 850 740 m 806 506 l 221 897 q 75 599 75 788 q 183 336 75 444 q 444 228 290 228 q 672 305 572 228 q 806 506 772 382 z "}," ":{"ha":694,"x_min":0,"x_max":0,"o":""},"!":{"ha":342,"x_min":50,"x_max":292,"o":"m 292 0 l 53 0 l 53 258 l 292 258 l 292 233 l 78 233 l 78 25 l 267 25 l 267 167 l 150 167 l 150 97 l 199 97 l 199 135 l 224 135 l 224 72 l 125 72 l 125 192 l 292 192 l 292 0 m 292 988 l 194 319 l 147 319 l 50 988 l 292 988 z "},"\"":{"ha":650,"x_min":50,"x_max":600,"o":"m 308 819 q 261 706 308 753 q 147 658 214 658 l 147 683 q 243 724 203 683 q 283 819 283 764 l 283 1033 l 75 1033 l 75 844 l 217 844 l 217 961 l 149 961 l 149 913 l 185 913 l 185 888 l 124 888 l 124 986 l 242 986 l 242 819 l 50 819 l 50 1058 l 308 1058 l 308 819 m 600 819 q 553 706 600 753 q 439 658 506 658 l 439 683 q 535 724 494 683 q 575 819 575 764 l 575 1033 l 367 1033 l 367 844 l 508 844 l 508 961 l 440 961 l 440 913 l 476 913 l 476 888 l 415 888 l 415 986 l 533 986 l 533 819 l 342 819 l 342 1058 l 600 1058 l 600 819 z "},"#":{"ha":486,"x_min":50,"x_max":436,"o":"m 54 672 l 54 700 l 185 672 l 249 988 l 275 988 l 211 667 l 304 647 l 374 988 l 400 988 l 331 642 l 436 621 l 436 594 l 325 617 l 307 522 l 436 496 l 436 469 l 301 496 l 203 0 l 175 0 l 275 501 l 181 521 l 78 0 l 50 0 l 156 526 l 54 547 l 54 575 l 161 553 l 179 646 l 54 672 m 206 640 l 186 547 l 281 528 l 299 622 l 206 640 z "},"$":{"ha":468,"x_min":50,"x_max":418,"o":"m 418 763 l 394 753 q 242 850 349 850 l 242 629 q 263 615 249 624 q 285 601 278 607 q 307 586 290 597 q 331 569 324 575 q 349 553 338 564 q 367 533 361 542 q 376 510 372 524 q 381 481 381 496 q 242 363 381 363 l 242 0 l 215 0 l 215 363 l 128 363 l 128 388 l 215 388 l 215 469 q 97 560 124 529 q 50 683 50 613 q 97 810 50 756 q 215 874 144 864 l 215 964 l 242 964 l 242 875 q 347 844 297 875 q 418 763 396 813 m 317 403 l 242 453 l 242 388 l 251 388 q 317 403 297 388 m 215 646 l 215 849 q 134 810 169 842 q 83 735 99 779 l 215 646 z "},"%":{"ha":954,"x_min":50,"x_max":904,"o":"m 443 917 q 476 884 443 917 q 510 754 510 850 q 443 592 510 658 q 281 526 376 526 q 117 592 185 526 q 50 754 50 658 q 117 917 50 850 q 281 985 185 985 q 443 917 376 985 m 475 700 l 156 914 q 79 754 79 853 q 138 611 79 669 q 281 553 196 553 q 402 593 349 553 q 475 700 456 633 m 838 391 q 871 357 838 391 q 904 228 904 324 q 838 66 904 132 q 675 0 771 0 q 512 66 579 0 q 444 228 444 132 q 512 391 444 324 q 675 458 579 458 q 838 391 771 458 m 869 174 l 550 388 q 474 228 474 326 q 532 85 474 143 q 675 26 590 26 q 797 67 743 26 q 869 174 850 107 m 279 0 l 250 0 l 682 985 l 710 985 l 279 0 z "},"&":{"ha":1231,"x_min":50,"x_max":1181,"o":"m 1181 140 l 1158 140 l 918 504 l 1111 504 l 1111 332 l 1035 440 l 1056 454 l 1086 410 l 1086 479 l 965 479 l 1156 189 l 1156 583 q 1144 584 1153 583 q 1133 585 1136 585 q 846 492 974 585 q 944 337 881 438 q 1059 154 1007 236 q 1158 0 1111 72 l 731 0 q 688 68 717 24 q 651 124 658 113 q 389 1 550 1 q 149 99 247 1 q 50 339 50 197 q 124 551 50 458 q 317 671 199 644 q 307 740 307 701 q 383 924 307 849 q 568 1000 460 1000 q 753 924 678 1000 q 828 739 828 849 q 782 592 828 661 l 832 513 q 1157 608 967 608 q 1181 607 1174 608 l 1181 140 m 638 147 q 453 443 575 246 q 411 504 443 458 q 358 585 379 550 q 325 647 336 621 q 154 549 225 628 l 499 44 q 638 147 585 78 m 768 614 q 804 739 804 675 q 735 907 804 839 q 567 975 667 975 q 539 974 549 975 l 768 614 z "},"'":{"ha":358,"x_min":50,"x_max":308,"o":"m 308 819 q 261 706 308 753 q 147 658 214 658 l 147 683 q 243 724 203 683 q 283 819 283 764 l 283 1033 l 75 1033 l 75 844 l 217 844 l 217 961 l 149 961 l 149 913 l 185 913 l 185 888 l 124 888 l 124 986 l 242 986 l 242 819 l 50 819 l 50 1058 l 308 1058 l 308 819 z "},"(":{"ha":596,"x_min":50,"x_max":546,"o":"m 546 24 l 546 0 q 196 144 342 0 q 50 493 50 289 q 194 843 50 699 q 544 988 339 988 l 544 963 q 212 826 349 963 q 75 493 75 689 q 213 161 75 299 q 546 24 351 24 z "},")":{"ha":596,"x_min":50,"x_max":546,"o":"m 50 0 l 50 24 q 383 161 244 24 q 521 493 521 299 q 384 826 521 689 q 51 963 247 963 l 51 988 q 401 843 257 988 q 546 493 546 699 q 400 144 546 289 q 50 0 254 0 z "},"*":{"ha":532,"x_min":50,"x_max":482,"o":"m 482 779 l 278 896 l 278 707 l 253 707 l 253 888 l 164 732 l 206 732 l 206 778 l 231 778 l 231 707 l 121 707 l 238 911 l 50 911 l 50 936 l 231 936 l 75 1025 l 75 983 l 121 983 l 121 958 l 50 958 l 50 1068 l 253 951 l 253 1139 l 278 1139 l 278 958 l 367 1114 l 325 1114 l 325 1068 l 300 1068 l 300 1139 l 410 1139 l 293 936 l 482 936 l 482 911 l 301 911 l 457 822 l 457 864 l 411 864 l 411 889 l 482 889 l 482 779 z "},"+":{"ha":629,"x_min":50,"x_max":579,"o":"m 50 517 l 50 542 l 301 542 l 301 793 l 326 793 l 326 542 l 579 542 l 579 517 l 326 517 l 326 264 l 301 264 l 301 517 l 50 517 z "},",":{"ha":358,"x_min":50,"x_max":308,"o":"m 308 0 q 260 -112 308 -65 q 147 -160 213 -160 l 147 -136 q 244 -94 204 -133 q 283 0 283 -56 l 283 214 l 75 214 l 75 25 l 217 25 l 217 142 l 149 142 l 149 93 l 185 93 l 185 68 l 124 68 l 124 167 l 242 167 l 242 0 l 50 0 l 50 239 l 308 239 l 308 0 z "},"-":{"ha":381,"x_min":50,"x_max":331,"o":"m 58 446 l 331 603 l 331 493 l 260 493 l 260 518 l 306 518 l 306 560 l 150 471 l 331 471 l 331 446 l 58 446 m 322 629 l 50 472 l 50 582 l 121 582 l 121 557 l 75 557 l 75 515 l 231 604 l 50 604 l 50 629 l 322 629 z "},".":{"ha":339,"x_min":50,"x_max":289,"o":"m 289 0 l 50 0 l 50 258 l 289 258 l 289 233 l 75 233 l 75 25 l 264 25 l 264 167 l 146 167 l 146 97 l 196 97 l 196 135 l 221 135 l 221 72 l 121 72 l 121 192 l 289 192 l 289 0 z "},"/":{"ha":356,"x_min":50,"x_max":306,"o":"m 78 0 l 50 0 l 279 988 l 306 988 l 78 0 z "},":":{"ha":339,"x_min":50,"x_max":289,"o":"m 289 0 l 50 0 l 50 258 l 289 258 l 289 233 l 75 233 l 75 25 l 264 25 l 264 167 l 146 167 l 146 97 l 196 97 l 196 135 l 221 135 l 221 72 l 121 72 l 121 192 l 289 192 l 289 0 m 289 306 l 50 306 l 50 564 l 289 564 l 289 539 l 75 539 l 75 331 l 264 331 l 264 472 l 146 472 l 146 403 l 196 403 l 196 440 l 221 440 l 221 378 l 121 378 l 121 497 l 289 497 l 289 306 z "},";":{"ha":361,"x_min":50,"x_max":311,"o":"m 311 0 q 263 -112 311 -65 q 150 -160 215 -160 l 150 -136 q 247 -94 207 -133 q 286 0 286 -56 l 286 214 l 78 214 l 78 25 l 219 25 l 219 142 l 151 142 l 151 93 l 188 93 l 188 68 l 126 68 l 126 167 l 244 167 l 244 0 l 53 0 l 53 239 l 311 239 l 311 0 m 289 306 l 50 306 l 50 564 l 289 564 l 289 539 l 75 539 l 75 331 l 264 331 l 264 472 l 146 472 l 146 403 l 196 403 l 196 440 l 221 440 l 221 378 l 121 378 l 121 497 l 289 497 l 289 306 z "},"<":{"ha":546,"x_min":50,"x_max":496,"o":"m 50 454 l 50 478 l 496 760 l 496 731 l 76 465 l 496 200 l 496 171 l 50 454 z "},"=":{"ha":629,"x_min":50,"x_max":579,"o":"m 50 572 l 50 597 l 579 597 l 579 572 l 50 572 m 50 461 l 50 486 l 579 486 l 579 461 l 50 461 z "},">":{"ha":546,"x_min":50,"x_max":496,"o":"m 496 478 l 496 454 l 50 171 l 50 200 l 469 465 l 50 731 l 50 760 l 496 478 z "},"?":{"ha":747,"x_min":50,"x_max":697,"o":"m 439 0 l 200 0 l 200 258 l 439 258 l 439 233 l 225 233 l 225 25 l 414 25 l 414 167 l 296 167 l 296 97 l 346 97 l 346 135 l 371 135 l 371 72 l 271 72 l 271 192 l 439 192 l 439 0 m 364 321 l 222 321 q 254 422 229 381 q 328 499 279 467 l 664 724 q 556 896 640 829 q 364 963 472 963 l 75 963 l 75 754 l 264 754 l 264 896 l 147 896 l 147 826 l 196 826 l 196 864 l 221 864 l 221 801 l 122 801 l 122 921 l 289 921 l 289 729 l 50 729 l 50 988 l 364 988 q 601 890 504 988 q 697 653 697 793 q 599 418 697 515 q 364 321 501 321 z "},"@":{"ha":836,"x_min":50,"x_max":786,"o":"m 753 306 l 776 290 q 625 153 718 200 q 429 107 532 107 q 163 203 275 107 q 50 468 50 300 q 180 760 50 646 q 490 875 310 875 q 708 788 629 875 q 786 578 786 701 q 717 368 786 467 q 560 264 644 264 q 489 290 515 264 q 463 363 463 317 q 389 290 432 321 q 304 260 346 260 q 228 301 261 260 q 194 400 194 340 q 290 617 194 514 q 496 721 385 721 q 549 699 528 721 q 572 643 569 676 l 606 718 l 690 718 l 535 371 q 528 335 528 354 q 564 289 528 289 q 638 323 599 289 q 694 383 676 357 q 758 578 758 476 q 681 770 758 693 q 468 847 604 847 q 289 788 371 847 q 162 640 207 729 q 117 458 117 551 q 207 226 117 321 q 438 133 299 133 q 615 180 529 133 q 753 306 701 226 m 514 513 q 543 635 543 588 q 493 693 543 693 q 385 630 438 693 q 304 488 333 567 q 275 349 275 408 q 313 289 275 289 q 427 363 371 289 q 514 513 483 438 z "},"A":{"ha":1222,"x_min":50,"x_max":1172,"o":"m 1172 0 l 786 0 l 433 639 l 93 25 l 374 25 l 493 243 l 282 243 l 193 81 l 335 81 l 388 178 l 319 178 l 289 122 l 261 122 l 304 203 l 429 203 l 349 56 l 151 56 l 267 268 l 535 268 l 388 0 l 50 0 l 611 1014 l 1172 0 z "},"B":{"ha":1058,"x_min":50,"x_max":1008,"o":"m 1008 332 q 910 97 1008 194 q 675 0 813 0 l 50 0 l 50 988 l 551 988 q 674 937 625 988 q 724 813 724 886 q 640 667 724 715 q 903 576 799 667 q 1008 332 1008 486 m 975 263 l 407 642 l 407 28 l 658 28 q 862 91 774 28 q 975 263 950 154 m 551 667 q 656 708 615 667 q 697 813 697 749 q 658 921 697 879 q 551 963 618 963 l 407 963 l 407 667 l 551 667 z "},"C":{"ha":1031,"x_min":50,"x_max":981,"o":"m 981 215 q 797 49 910 108 q 557 -11 685 -11 q 198 135 346 -11 q 50 493 50 282 q 198 852 50 704 q 557 1000 346 1000 q 792 942 679 1000 q 976 778 904 883 l 808 596 l 581 767 l 714 907 l 867 792 l 783 703 l 688 775 l 732 821 l 750 803 l 725 778 l 781 736 l 829 789 l 717 874 l 618 769 l 806 629 l 944 779 q 773 923 875 871 q 557 975 671 975 q 279 887 404 975 q 104 654 154 799 l 878 135 q 958 229 926 178 l 981 215 z "},"D":{"ha":1068,"x_min":50,"x_max":1018,"o":"m 1018 493 q 872 144 1018 289 q 522 0 726 0 l 50 0 l 50 988 l 524 988 q 874 843 729 988 q 1018 493 1018 699 m 993 493 q 856 826 993 689 q 524 963 719 963 l 393 963 l 393 25 q 457 24 414 25 q 522 24 500 24 q 855 161 717 24 q 993 493 993 299 z "},"E":{"ha":947,"x_min":50,"x_max":897,"o":"m 897 0 l 50 0 l 50 988 l 856 988 l 856 729 l 610 729 l 610 921 l 776 921 l 776 796 l 678 796 l 678 857 l 703 857 l 703 821 l 751 821 l 751 896 l 635 896 l 635 754 l 829 754 l 829 963 l 401 963 l 401 640 l 824 640 l 824 615 l 401 615 l 401 25 l 872 25 l 872 290 l 632 290 l 632 92 l 799 92 l 799 224 l 708 224 l 708 164 l 765 164 l 765 139 l 683 139 l 683 249 l 824 249 l 824 67 l 607 67 l 607 315 l 897 315 l 897 0 z "},"F":{"ha":947,"x_min":50,"x_max":897,"o":"m 897 672 l 607 672 l 607 919 l 824 919 l 824 739 l 683 739 l 683 849 l 765 849 l 765 824 l 708 824 l 708 764 l 799 764 l 799 894 l 632 894 l 632 697 l 872 697 l 872 963 l 401 963 l 401 640 l 824 640 l 824 615 l 401 615 l 401 0 l 50 0 l 50 988 l 897 988 l 897 672 z "},"G":{"ha":1113,"x_min":50,"x_max":1063,"o":"m 1061 546 q 1063 503 1063 532 q 917 138 1063 288 q 557 -11 771 -11 q 198 135 346 -11 q 50 493 50 282 q 198 852 50 704 q 557 1000 346 1000 q 921 844 768 1000 l 903 828 q 747 935 836 896 q 564 974 658 974 q 281 888 404 974 q 103 653 157 803 l 876 135 q 1039 500 1039 281 q 1038 509 1039 503 q 1038 521 1038 515 l 642 521 l 910 340 l 910 468 l 839 468 l 885 438 l 885 407 l 758 493 l 935 493 l 935 293 l 593 524 l 593 546 l 1061 546 z "},"H":{"ha":901,"x_min":50,"x_max":851,"o":"m 851 0 l 826 0 l 826 322 l 75 322 l 75 25 l 340 25 l 340 265 l 142 265 l 142 99 l 274 99 l 274 189 l 214 189 l 214 132 l 188 132 l 188 214 l 299 214 l 299 74 l 117 74 l 117 290 l 365 290 l 365 0 l 50 0 l 50 988 l 75 988 l 75 665 l 826 665 l 826 963 l 561 963 l 561 721 l 760 721 l 760 889 l 628 889 l 628 799 l 688 799 l 688 856 l 713 856 l 713 774 l 603 774 l 603 914 l 785 914 l 785 696 l 536 696 l 536 988 l 851 988 l 851 0 z "},"I":{"ha":443,"x_min":50,"x_max":393,"o":"m 393 0 l 50 0 l 50 988 l 393 988 l 393 0 z "},"J":{"ha":894,"x_min":50,"x_max":844,"o":"m 446 -11 q 165 103 281 -11 q 50 383 50 218 l 50 438 l 426 438 l 426 181 l 182 181 l 182 385 l 349 385 l 349 246 l 243 246 l 243 314 l 268 314 l 268 271 l 324 271 l 324 360 l 207 360 l 207 206 l 401 206 l 401 413 l 75 413 l 75 399 q 183 122 75 231 q 458 13 290 13 q 474 14 464 13 q 490 15 485 15 l 490 988 l 843 988 q 844 754 843 910 q 844 521 844 599 q 843 374 844 422 q 724 101 840 213 q 446 -11 607 -11 z "},"K":{"ha":1044,"x_min":50,"x_max":994,"o":"m 994 0 l 638 0 l 403 339 l 403 0 l 50 0 l 50 988 l 403 988 l 403 497 l 863 963 l 622 963 l 482 821 l 633 821 l 706 892 l 636 892 l 601 860 l 565 860 l 631 917 l 768 917 l 638 794 l 421 794 l 611 988 l 922 988 l 574 636 l 994 0 z "},"L":{"ha":840,"x_min":50,"x_max":790,"o":"m 790 0 l 50 0 l 50 988 l 401 988 l 401 25 l 765 25 l 765 290 l 524 290 l 524 92 l 692 92 l 692 224 l 601 224 l 601 164 l 658 164 l 658 139 l 576 139 l 576 249 l 717 249 l 717 67 l 499 67 l 499 315 l 790 315 l 790 0 z "},"M":{"ha":1089,"x_min":50,"x_max":1039,"o":"m 1039 0 l 724 0 l 724 257 l 972 428 l 972 74 l 790 74 l 790 192 l 901 268 l 901 144 l 876 144 l 876 221 l 817 179 l 817 99 l 947 99 l 947 381 l 749 244 l 749 25 l 1014 25 l 1014 572 l 544 250 l 75 572 l 75 25 l 340 25 l 340 244 l 142 381 l 142 99 l 272 99 l 272 179 l 213 221 l 213 144 l 188 144 l 188 268 l 297 192 l 297 74 l 117 74 l 117 428 l 365 257 l 365 0 l 50 0 l 50 1011 l 544 671 l 1039 1011 l 1039 0 z "},"N":{"ha":976,"x_min":50,"x_max":926,"o":"m 926 -11 l 75 572 l 75 25 l 340 25 l 340 257 l 142 393 l 142 99 l 272 99 l 272 179 l 213 221 l 213 144 l 188 144 l 188 268 l 297 192 l 297 74 l 117 74 l 117 440 l 365 271 l 365 0 l 50 0 l 50 1011 l 901 425 l 901 975 l 636 975 l 636 743 l 835 607 l 835 901 l 703 901 l 703 821 l 763 779 l 763 856 l 788 856 l 788 732 l 678 808 l 678 926 l 860 926 l 860 560 l 611 729 l 611 1000 l 926 1000 l 926 -11 z "},"O":{"ha":1114,"x_min":50,"x_max":1064,"o":"m 916 852 q 990 778 916 852 q 1064 493 1064 704 q 916 135 1064 282 q 557 -11 768 -11 q 198 135 346 -11 q 50 493 50 282 q 198 852 50 704 q 557 1000 346 1000 q 916 852 768 1000 m 1024 374 l 269 879 q 127 710 178 811 q 76 493 76 608 q 217 153 76 293 q 557 13 357 13 q 851 113 721 13 q 1024 374 982 214 z "},"P":{"ha":1058,"x_min":50,"x_max":1008,"o":"m 911 890 q 960 841 911 890 q 1008 654 1008 792 q 911 419 1008 517 q 786 339 849 357 q 631 321 724 321 l 407 321 l 407 0 l 50 0 l 50 988 l 675 988 q 911 890 814 988 m 975 724 q 867 896 951 829 q 675 963 783 963 l 407 963 l 407 343 l 975 724 z "},"Q":{"ha":1396,"x_min":50,"x_max":1346,"o":"m 1346 268 l 1129 0 l 665 0 q 614 -6 653 0 q 556 -11 575 -11 q 197 136 344 -11 q 50 494 50 283 q 197 853 50 706 q 556 1000 344 1000 q 915 853 767 1000 q 1063 494 1063 706 q 976 213 1063 340 q 746 25 890 85 l 1117 25 l 1293 243 l 1088 243 l 956 81 l 1093 81 l 1179 188 l 1114 188 l 1065 126 l 1033 126 l 1103 213 l 1232 213 l 1104 56 l 903 56 l 1075 268 l 1346 268 m 1038 494 q 897 835 1038 694 q 556 975 756 975 q 261 874 390 975 q 90 614 132 774 l 843 108 q 986 278 935 176 q 1038 494 1038 379 z "},"R":{"ha":1038,"x_min":50,"x_max":988,"o":"m 988 544 q 931 326 988 426 q 772 165 874 226 l 932 0 l 560 0 l 560 83 q 747 111 715 108 l 807 39 l 669 39 l 669 64 l 754 64 l 738 85 l 585 63 l 585 25 l 872 25 l 750 153 q 546 103 653 103 q 407 125 472 103 l 407 0 l 50 0 l 50 988 l 546 988 q 858 858 729 988 q 988 544 988 728 m 840 249 q 901 310 840 249 q 963 544 963 371 q 841 840 963 718 q 546 963 719 963 l 407 963 l 407 151 q 544 128 475 128 q 840 249 718 128 z "},"S":{"ha":813,"x_min":50,"x_max":763,"o":"m 763 774 l 596 593 l 369 764 q 501 906 392 789 l 656 789 l 571 701 l 475 774 l 519 818 l 538 801 l 513 776 l 568 735 l 617 786 l 504 872 l 407 768 l 593 626 l 733 779 q 606 922 690 869 q 421 975 521 975 q 210 902 304 975 q 86 715 117 829 q 315 569 133 685 q 593 388 496 454 q 683 213 683 324 q 624 60 683 119 q 472 0 565 0 l 169 0 l 308 204 l 531 57 l 275 57 l 319 121 l 340 106 l 324 82 l 446 82 l 315 169 l 217 25 l 472 25 q 590 68 543 25 l 218 317 q 94 451 139 369 q 50 628 50 532 q 158 891 50 782 q 421 1000 267 1000 q 625 940 535 1000 q 763 774 715 879 z "},"T":{"ha":1061,"x_min":50,"x_max":1011,"o":"m 1011 685 l 767 685 l 767 933 l 933 933 l 933 757 l 828 757 l 828 864 l 853 864 l 853 782 l 908 782 l 908 908 l 792 908 l 792 710 l 986 710 l 986 963 l 701 963 l 701 0 l 360 0 l 360 963 l 75 963 l 75 710 l 269 710 l 269 908 l 153 908 l 153 782 l 207 782 l 207 864 l 233 864 l 233 757 l 128 757 l 128 933 l 294 933 l 294 685 l 50 685 l 50 988 l 1011 988 l 1011 685 z "},"U":{"ha":893,"x_min":50,"x_max":843,"o":"m 843 383 q 726 104 843 219 q 446 -11 610 -11 q 165 103 281 -11 q 50 383 50 218 l 50 975 l 75 975 l 75 383 q 188 118 75 231 l 818 542 l 818 975 l 843 975 l 843 383 z "},"V":{"ha":1222,"x_min":50,"x_max":1172,"o":"m 1172 988 l 611 -26 l 50 988 l 438 988 l 790 349 l 1129 963 l 850 963 l 731 744 l 940 744 l 1029 906 l 889 906 l 831 800 l 899 800 l 929 857 l 958 857 l 914 775 l 788 775 l 874 931 l 1072 931 l 956 719 l 688 719 l 835 988 l 1172 988 z "},"W":{"ha":1728,"x_min":50,"x_max":1678,"o":"m 1678 988 l 1117 -26 l 864 432 l 610 -26 l 50 988 l 436 988 l 789 349 l 849 457 l 557 988 l 943 988 l 1296 349 l 1635 963 l 1356 963 l 1236 744 l 1446 744 l 1535 906 l 1394 906 l 1336 800 l 1404 800 l 1432 851 l 1461 851 l 1419 775 l 1294 775 l 1379 931 l 1578 931 l 1461 719 l 1193 719 l 1340 988 l 1678 988 z "},"X":{"ha":1286,"x_min":50,"x_max":1236,"o":"m 1236 988 l 1092 719 l 825 719 l 939 932 l 1136 932 l 1053 775 l 940 775 l 979 847 l 1007 847 l 982 801 l 1038 801 l 1094 907 l 954 907 l 867 744 l 1076 744 l 1194 963 l 914 963 l 742 639 l 1193 0 l 786 0 l 558 321 l 386 0 l 50 0 l 194 269 l 461 269 l 347 57 l 149 57 l 233 213 l 346 213 l 306 139 l 278 139 l 304 188 l 249 188 l 192 82 l 332 82 l 419 243 l 210 243 l 92 25 l 372 25 l 542 344 l 85 988 l 494 988 l 725 661 l 899 988 l 1236 988 z "},"Y":{"ha":1232,"x_min":50,"x_max":1182,"o":"m 1182 988 l 783 503 l 783 0 l 440 0 l 440 511 l 50 988 l 440 988 l 794 556 l 1129 963 l 853 963 l 746 828 l 915 828 l 964 890 l 897 890 l 878 865 l 847 865 l 885 915 l 1017 915 l 926 803 l 693 803 l 840 988 l 1182 988 z "},"Z":{"ha":1119,"x_min":50,"x_max":1069,"o":"m 1069 988 l 483 25 l 1035 25 l 1035 328 l 803 328 l 665 101 l 961 101 l 961 253 l 881 253 l 838 182 l 915 182 l 915 157 l 793 157 l 867 278 l 986 278 l 986 75 l 621 75 l 789 353 l 1060 353 l 1060 0 l 50 0 l 633 963 l 85 963 l 85 660 l 317 660 l 454 886 l 158 886 l 158 735 l 238 735 l 282 806 l 204 806 l 204 831 l 326 831 l 251 710 l 133 710 l 133 911 l 499 911 l 331 635 l 60 635 l 60 988 l 1069 988 z "},"[":{"ha":601,"x_min":50,"x_max":551,"o":"m 551 -208 l 50 -208 l 50 988 l 551 988 l 551 963 l 401 963 l 401 -183 l 551 -183 l 551 -208 z "},"\\":{"ha":356,"x_min":50,"x_max":306,"o":"m 306 0 l 278 0 l 50 988 l 76 988 l 306 0 z "},"]":{"ha":601,"x_min":50,"x_max":551,"o":"m 551 -208 l 50 -208 l 50 -183 l 200 -183 l 200 963 l 50 963 l 50 988 l 551 988 l 551 -208 z "},"_":{"ha":694,"x_min":0,"x_max":694,"o":"m 0 -35 l 0 -10 l 694 -10 l 694 -35 l 0 -35 z "},"`":{"ha":372,"x_min":50,"x_max":322,"o":"m 322 1013 l 50 1013 l 50 1038 l 231 1038 l 75 1126 l 75 1085 l 121 1085 l 121 1060 l 50 1060 l 50 1169 l 322 1013 z "},"a":{"ha":1222,"x_min":50,"x_max":1172,"o":"m 1172 0 l 786 0 l 433 639 l 93 25 l 374 25 l 493 243 l 282 243 l 193 81 l 335 81 l 388 178 l 319 178 l 289 122 l 261 122 l 304 203 l 429 203 l 349 56 l 151 56 l 267 268 l 535 268 l 388 0 l 50 0 l 611 1014 l 1172 0 z "},"b":{"ha":1058,"x_min":50,"x_max":1008,"o":"m 1008 332 q 910 97 1008 194 q 675 0 813 0 l 50 0 l 50 988 l 551 988 q 674 937 625 988 q 724 813 724 886 q 640 667 724 715 q 903 576 799 667 q 1008 332 1008 486 m 975 263 l 407 642 l 407 28 l 658 28 q 862 91 774 28 q 975 263 950 154 m 551 667 q 656 708 615 667 q 697 813 697 749 q 658 921 697 879 q 551 963 618 963 l 407 963 l 407 667 l 551 667 z "},"c":{"ha":1031,"x_min":50,"x_max":981,"o":"m 981 215 q 797 49 910 108 q 557 -11 685 -11 q 198 135 346 -11 q 50 493 50 282 q 198 852 50 704 q 557 1000 346 1000 q 792 942 679 1000 q 976 778 904 883 l 808 596 l 581 767 l 714 907 l 867 792 l 783 703 l 688 775 l 732 821 l 750 803 l 725 778 l 781 736 l 829 789 l 717 874 l 618 769 l 806 629 l 944 779 q 773 923 875 871 q 557 975 671 975 q 279 887 404 975 q 104 654 154 799 l 878 135 q 958 229 926 178 l 981 215 z "},"d":{"ha":1068,"x_min":50,"x_max":1018,"o":"m 1018 493 q 872 144 1018 289 q 522 0 726 0 l 50 0 l 50 988 l 524 988 q 874 843 729 988 q 1018 493 1018 699 m 993 493 q 856 826 993 689 q 524 963 719 963 l 393 963 l 393 25 q 457 24 414 25 q 522 24 500 24 q 855 161 717 24 q 993 493 993 299 z "},"e":{"ha":947,"x_min":50,"x_max":897,"o":"m 897 0 l 50 0 l 50 988 l 856 988 l 856 729 l 610 729 l 610 921 l 776 921 l 776 796 l 678 796 l 678 857 l 703 857 l 703 821 l 751 821 l 751 896 l 635 896 l 635 754 l 829 754 l 829 963 l 401 963 l 401 640 l 824 640 l 824 615 l 401 615 l 401 25 l 872 25 l 872 290 l 632 290 l 632 92 l 799 92 l 799 224 l 708 224 l 708 164 l 765 164 l 765 139 l 683 139 l 683 249 l 824 249 l 824 67 l 607 67 l 607 315 l 897 315 l 897 0 z "},"f":{"ha":947,"x_min":50,"x_max":897,"o":"m 897 672 l 607 672 l 607 919 l 824 919 l 824 739 l 683 739 l 683 849 l 765 849 l 765 824 l 708 824 l 708 764 l 799 764 l 799 894 l 632 894 l 632 697 l 872 697 l 872 963 l 401 963 l 401 640 l 824 640 l 824 615 l 401 615 l 401 0 l 50 0 l 50 988 l 897 988 l 897 672 z "},"g":{"ha":1113,"x_min":50,"x_max":1063,"o":"m 1061 546 q 1063 503 1063 532 q 917 138 1063 288 q 557 -11 771 -11 q 198 135 346 -11 q 50 493 50 282 q 198 852 50 704 q 557 1000 346 1000 q 921 844 768 1000 l 903 828 q 747 935 836 896 q 564 974 658 974 q 281 888 404 974 q 103 653 157 803 l 876 135 q 1039 500 1039 281 q 1038 509 1039 503 q 1038 521 1038 515 l 642 521 l 910 340 l 910 468 l 839 468 l 885 438 l 885 407 l 758 493 l 935 493 l 935 293 l 593 524 l 593 546 l 1061 546 z "},"h":{"ha":901,"x_min":50,"x_max":851,"o":"m 851 0 l 826 0 l 826 322 l 75 322 l 75 25 l 340 25 l 340 265 l 142 265 l 142 99 l 274 99 l 274 189 l 214 189 l 214 132 l 188 132 l 188 214 l 299 214 l 299 74 l 117 74 l 117 290 l 365 290 l 365 0 l 50 0 l 50 988 l 75 988 l 75 665 l 826 665 l 826 963 l 561 963 l 561 721 l 760 721 l 760 889 l 628 889 l 628 799 l 688 799 l 688 856 l 713 856 l 713 774 l 603 774 l 603 914 l 785 914 l 785 696 l 536 696 l 536 988 l 851 988 l 851 0 z "},"i":{"ha":443,"x_min":50,"x_max":393,"o":"m 393 0 l 50 0 l 50 988 l 393 988 l 393 0 z "},"j":{"ha":894,"x_min":50,"x_max":844,"o":"m 446 -11 q 165 103 281 -11 q 50 383 50 218 l 50 438 l 426 438 l 426 181 l 182 181 l 182 385 l 349 385 l 349 246 l 243 246 l 243 314 l 268 314 l 268 271 l 324 271 l 324 360 l 207 360 l 207 206 l 401 206 l 401 413 l 75 413 l 75 399 q 183 122 75 231 q 458 13 290 13 q 474 14 464 13 q 490 15 485 15 l 490 988 l 843 988 q 844 754 843 910 q 844 521 844 599 q 843 374 844 422 q 724 101 840 213 q 446 -11 607 -11 z "},"k":{"ha":1044,"x_min":50,"x_max":994,"o":"m 994 0 l 638 0 l 403 339 l 403 0 l 50 0 l 50 988 l 403 988 l 403 497 l 863 963 l 622 963 l 482 821 l 633 821 l 706 892 l 636 892 l 601 860 l 565 860 l 631 917 l 768 917 l 638 794 l 421 794 l 611 988 l 922 988 l 574 636 l 994 0 z "},"l":{"ha":840,"x_min":50,"x_max":790,"o":"m 790 0 l 50 0 l 50 988 l 401 988 l 401 25 l 765 25 l 765 290 l 524 290 l 524 92 l 692 92 l 692 224 l 601 224 l 601 164 l 658 164 l 658 139 l 576 139 l 576 249 l 717 249 l 717 67 l 499 67 l 499 315 l 790 315 l 790 0 z "},"m":{"ha":1089,"x_min":50,"x_max":1039,"o":"m 1039 0 l 724 0 l 724 257 l 972 428 l 972 74 l 790 74 l 790 192 l 901 268 l 901 144 l 876 144 l 876 221 l 817 179 l 817 99 l 947 99 l 947 381 l 749 244 l 749 25 l 1014 25 l 1014 572 l 544 250 l 75 572 l 75 25 l 340 25 l 340 244 l 142 381 l 142 99 l 272 99 l 272 179 l 213 221 l 213 144 l 188 144 l 188 268 l 297 192 l 297 74 l 117 74 l 117 428 l 365 257 l 365 0 l 50 0 l 50 1011 l 544 671 l 1039 1011 l 1039 0 z "},"n":{"ha":976,"x_min":50,"x_max":926,"o":"m 926 -11 l 75 572 l 75 25 l 340 25 l 340 257 l 142 393 l 142 99 l 272 99 l 272 179 l 213 221 l 213 144 l 188 144 l 188 268 l 297 192 l 297 74 l 117 74 l 117 440 l 365 271 l 365 0 l 50 0 l 50 1011 l 901 425 l 901 975 l 636 975 l 636 743 l 835 607 l 835 901 l 703 901 l 703 821 l 763 779 l 763 856 l 788 856 l 788 732 l 678 808 l 678 926 l 860 926 l 860 560 l 611 729 l 611 1000 l 926 1000 l 926 -11 z "},"o":{"ha":1114,"x_min":50,"x_max":1064,"o":"m 916 852 q 990 778 916 852 q 1064 493 1064 704 q 916 135 1064 282 q 557 -11 768 -11 q 198 135 346 -11 q 50 493 50 282 q 198 852 50 704 q 557 1000 346 1000 q 916 852 768 1000 m 1024 374 l 269 879 q 127 710 178 811 q 76 493 76 608 q 217 153 76 293 q 557 13 357 13 q 851 113 721 13 q 1024 374 982 214 z "},"p":{"ha":1058,"x_min":50,"x_max":1008,"o":"m 911 890 q 960 841 911 890 q 1008 654 1008 792 q 911 419 1008 517 q 786 339 849 357 q 631 321 724 321 l 407 321 l 407 0 l 50 0 l 50 988 l 675 988 q 911 890 814 988 m 975 724 q 867 896 951 829 q 675 963 783 963 l 407 963 l 407 343 l 975 724 z "},"q":{"ha":1396,"x_min":50,"x_max":1346,"o":"m 1346 268 l 1129 0 l 665 0 q 614 -6 653 0 q 556 -11 575 -11 q 197 136 344 -11 q 50 494 50 283 q 197 853 50 706 q 556 1000 344 1000 q 915 853 767 1000 q 1063 494 1063 706 q 976 213 1063 340 q 746 25 890 85 l 1117 25 l 1293 243 l 1088 243 l 956 81 l 1093 81 l 1179 188 l 1114 188 l 1065 126 l 1033 126 l 1103 213 l 1232 213 l 1104 56 l 903 56 l 1075 268 l 1346 268 m 1038 494 q 897 835 1038 694 q 556 975 756 975 q 261 874 390 975 q 90 614 132 774 l 843 108 q 986 278 935 176 q 1038 494 1038 379 z "},"r":{"ha":1038,"x_min":50,"x_max":988,"o":"m 988 544 q 931 326 988 426 q 772 165 874 226 l 932 0 l 560 0 l 560 83 q 747 111 715 108 l 807 39 l 653 39 l 653 64 l 754 64 l 738 85 l 585 63 l 585 25 l 872 25 l 750 153 q 546 103 653 103 q 407 125 472 103 l 407 0 l 50 0 l 50 988 l 546 988 q 858 858 729 988 q 988 544 988 728 m 840 249 q 901 310 840 249 q 963 544 963 371 q 841 840 963 718 q 546 963 719 963 l 407 963 l 407 151 q 544 128 475 128 q 840 249 718 128 z "},"s":{"ha":813,"x_min":50,"x_max":763,"o":"m 763 774 l 596 593 l 369 764 q 501 906 392 789 l 656 789 l 571 701 l 475 774 l 519 818 l 538 801 l 513 776 l 568 735 l 617 786 l 504 872 l 407 768 l 593 626 l 733 779 q 606 922 690 869 q 421 975 521 975 q 210 902 304 975 q 86 715 117 829 q 315 569 133 685 q 593 388 496 454 q 683 213 683 324 q 624 60 683 119 q 472 0 565 0 l 169 0 l 308 204 l 531 57 l 275 57 l 319 121 l 340 106 l 324 82 l 446 82 l 315 169 l 217 25 l 472 25 q 590 68 543 25 l 218 317 q 94 451 139 369 q 50 628 50 532 q 158 891 50 782 q 421 1000 267 1000 q 625 940 535 1000 q 763 774 715 879 z "},"t":{"ha":1061,"x_min":50,"x_max":1011,"o":"m 1011 685 l 767 685 l 767 933 l 933 933 l 933 757 l 828 757 l 828 864 l 853 864 l 853 782 l 908 782 l 908 908 l 792 908 l 792 710 l 986 710 l 986 963 l 701 963 l 701 0 l 360 0 l 360 963 l 75 963 l 75 710 l 269 710 l 269 908 l 153 908 l 153 782 l 207 782 l 207 864 l 233 864 l 233 757 l 128 757 l 128 933 l 294 933 l 294 685 l 50 685 l 50 988 l 1011 988 l 1011 685 z "},"u":{"ha":893,"x_min":50,"x_max":843,"o":"m 843 383 q 726 104 843 219 q 446 -11 610 -11 q 165 103 281 -11 q 50 383 50 218 l 50 975 l 75 975 l 75 383 q 188 118 75 231 l 818 542 l 818 975 l 843 975 l 843 383 z "},"v":{"ha":1222,"x_min":50,"x_max":1172,"o":"m 1172 988 l 611 -26 l 50 988 l 438 988 l 790 349 l 1129 963 l 850 963 l 731 744 l 940 744 l 1029 906 l 889 906 l 831 800 l 899 800 l 929 857 l 958 857 l 914 775 l 788 775 l 874 931 l 1072 931 l 956 719 l 688 719 l 835 988 l 1172 988 z "},"w":{"ha":1728,"x_min":50,"x_max":1678,"o":"m 1678 988 l 1117 -26 l 864 432 l 610 -26 l 50 988 l 436 988 l 789 349 l 849 457 l 557 988 l 943 988 l 1296 349 l 1635 963 l 1356 963 l 1236 744 l 1446 744 l 1535 906 l 1394 906 l 1336 800 l 1404 800 l 1432 851 l 1461 851 l 1419 775 l 1294 775 l 1379 931 l 1578 931 l 1461 719 l 1193 719 l 1340 988 l 1678 988 z "},"x":{"ha":1286,"x_min":50,"x_max":1236,"o":"m 1236 988 l 1092 719 l 825 719 l 939 932 l 1136 932 l 1053 775 l 940 775 l 979 847 l 1007 847 l 982 801 l 1038 801 l 1094 907 l 954 907 l 867 744 l 1076 744 l 1194 963 l 914 963 l 742 639 l 1193 0 l 786 0 l 558 321 l 386 0 l 50 0 l 194 269 l 461 269 l 347 57 l 149 57 l 233 213 l 346 213 l 306 139 l 278 139 l 304 188 l 249 188 l 192 82 l 332 82 l 419 243 l 210 243 l 92 25 l 372 25 l 542 344 l 85 988 l 494 988 l 725 661 l 899 988 l 1236 988 z "},"y":{"ha":1232,"x_min":50,"x_max":1182,"o":"m 1182 988 l 783 503 l 783 0 l 440 0 l 440 511 l 50 988 l 440 988 l 794 556 l 1129 963 l 853 963 l 746 828 l 915 828 l 964 890 l 897 890 l 878 865 l 847 865 l 885 915 l 1017 915 l 926 803 l 693 803 l 840 988 l 1182 988 z "},"z":{"ha":1119,"x_min":50,"x_max":1069,"o":"m 1069 988 l 483 25 l 1035 25 l 1035 328 l 803 328 l 665 101 l 961 101 l 961 253 l 881 253 l 838 182 l 915 182 l 915 157 l 793 157 l 867 278 l 986 278 l 986 75 l 621 75 l 789 353 l 1060 353 l 1060 0 l 50 0 l 633 963 l 85 963 l 85 660 l 317 660 l 454 886 l 158 886 l 158 735 l 238 735 l 282 806 l 204 806 l 204 831 l 326 831 l 251 710 l 133 710 l 133 911 l 499 911 l 331 635 l 60 635 l 60 988 l 1069 988 z "},"{":{"ha":813,"x_min":50,"x_max":763,"o":"m 571 389 l 86 76 q 210 -110 117 -37 q 421 -183 304 -183 q 606 -131 521 -183 q 733 13 690 -78 l 593 165 l 407 24 l 504 -81 l 617 6 l 568 57 l 513 15 l 538 -10 l 519 -26 l 475 18 l 571 90 l 656 3 l 501 -114 q 369 28 392 3 l 596 199 l 763 18 q 625 -148 715 -87 q 421 -208 535 -208 q 158 -99 267 -208 q 50 164 50 10 l 50 614 q 158 877 50 768 q 421 986 267 986 q 625 926 535 986 q 763 760 715 865 l 596 579 l 369 750 q 501 892 392 775 l 656 775 l 571 688 l 475 760 l 519 804 l 538 788 l 513 763 l 568 721 l 617 772 l 504 858 l 407 754 l 593 613 l 733 765 q 606 908 690 856 q 421 961 521 961 q 210 888 304 961 q 86 701 117 815 q 275 580 128 674 q 571 389 422 486 z "},"}":{"ha":813,"x_min":50,"x_max":763,"o":"m 726 76 l 242 389 q 538 580 390 486 q 726 701 685 674 q 602 888 696 815 q 392 961 508 961 q 207 908 292 961 q 79 765 122 856 l 219 613 l 406 754 l 308 858 l 196 772 l 244 721 l 300 763 l 275 788 l 293 804 l 338 760 l 242 688 l 157 775 l 311 892 q 443 750 421 775 l 217 579 l 50 760 q 188 926 97 865 q 392 986 278 986 q 654 877 546 986 q 763 614 763 768 l 763 164 q 654 -99 763 10 q 392 -208 546 -208 q 188 -148 278 -208 q 50 18 97 -87 l 217 199 l 443 28 q 311 -114 421 3 l 157 3 l 242 90 l 338 18 l 293 -26 l 275 -10 l 300 15 l 244 57 l 196 6 l 308 -81 l 406 24 l 219 165 l 79 13 q 207 -131 122 -78 q 392 -183 292 -183 q 602 -110 508 -183 q 726 76 696 -37 z "},"~":{"ha":694,"x_min":0,"x_max":0,"o":""},"¡":{"ha":342,"x_min":50,"x_max":292,"o":"m 292 -274 l 50 -274 l 147 394 l 194 394 l 292 -274 m 289 456 l 50 456 l 50 481 l 264 481 l 264 689 l 75 689 l 75 547 l 192 547 l 192 617 l 143 617 l 143 579 l 118 579 l 118 642 l 217 642 l 217 522 l 50 522 l 50 714 l 289 714 l 289 456 z "},"¢":{"ha":576,"x_min":50,"x_max":526,"o":"m 526 761 l 506 747 q 469 790 483 778 l 290 671 l 290 386 q 300 385 294 386 q 310 385 306 385 q 417 412 365 385 q 501 483 469 439 l 522 469 q 296 361 443 361 l 290 361 l 290 0 l 265 0 l 265 364 q 111 452 172 379 q 50 619 50 525 q 110 786 50 714 q 265 875 171 858 l 265 964 l 290 964 l 290 878 q 297 878 292 878 q 304 879 303 879 q 432 848 372 879 q 526 761 492 817 m 265 389 l 265 654 l 90 536 q 159 440 113 479 q 265 389 206 400 z "},"£":{"ha":651,"x_min":50,"x_max":601,"o":"m 601 690 l 446 631 l 436 654 l 576 708 q 506 874 575 803 q 333 944 436 944 q 163 868 232 944 l 343 557 l 435 557 l 435 532 l 358 532 q 394 426 394 472 q 326 301 394 347 l 435 301 q 522 341 489 301 q 556 436 556 381 l 581 431 q 540 324 581 372 q 444 276 500 276 l 247 276 q 176 292 207 276 l 188 314 q 242 301 213 301 q 267 304 250 301 l 133 532 l 50 532 l 50 557 l 119 557 q 74 710 74 632 q 152 893 74 817 q 339 969 231 969 q 527 891 453 969 q 601 696 601 813 l 601 690 z "},"¤":{"ha":833,"x_min":50,"x_max":783,"o":"m 783 624 l 428 624 l 428 581 l 688 581 l 688 556 l 428 556 q 427 473 428 528 q 426 392 426 418 q 428 310 426 336 q 497 303 456 303 q 668 351 586 303 l 682 331 q 496 276 596 276 q 276 355 372 276 q 156 556 179 433 l 50 556 l 50 581 l 151 581 q 150 602 151 588 q 149 624 149 617 l 50 624 l 50 649 l 150 649 q 260 878 160 785 q 496 972 360 972 q 757 854 651 972 l 757 960 l 782 960 l 782 818 l 760 811 q 479 946 664 946 q 428 939 451 946 l 428 649 l 783 649 l 783 624 z "},"¥":{"ha":903,"x_min":50,"x_max":853,"o":"m 853 964 l 572 628 l 572 608 l 693 608 l 693 583 l 572 583 l 572 538 l 693 538 l 693 513 l 572 513 l 572 276 l 326 276 l 326 513 l 206 513 l 206 538 l 326 538 l 326 583 l 206 583 l 206 608 l 326 608 l 326 636 l 50 972 l 332 972 l 578 674 l 833 981 l 853 964 z "},"§":{"ha":3014,"x_min":38,"x_max":2975,"o":"m 38 1042 l 215 1042 l 215 0 l 38 0 l 38 1042 m 2806 1042 l 2975 1042 l 2975 0 l 2806 0 l 2806 1042 m 1735 650 q 1791 753 1756 706 q 1874 834 1826 800 q 1980 887 1922 868 q 2100 906 2038 906 q 2220 887 2163 906 q 2326 834 2278 868 q 2409 753 2374 800 q 2465 650 2444 706 l 2636 650 q 2585 781 2619 719 q 2503 894 2551 843 q 2397 982 2456 944 q 2269 1042 2338 1019 l 1931 1042 q 1803 982 1863 1019 q 1697 894 1744 944 q 1615 781 1649 843 q 1564 650 1581 719 l 1735 650 m 2465 383 q 2409 281 2444 328 q 2326 199 2374 233 q 2220 147 2278 165 q 2100 128 2163 128 q 1980 147 2038 128 q 1874 199 1922 165 q 1791 281 1826 233 q 1735 383 1756 328 l 1564 383 q 1688 149 1597 250 q 1906 0 1779 49 l 2296 0 q 2513 149 2422 49 q 2636 383 2603 250 l 2465 383 m 1282 383 q 1225 281 1261 328 q 1141 199 1189 233 q 1035 147 1093 165 q 915 128 978 128 q 796 147 853 128 q 691 199 739 165 q 607 281 643 233 q 550 383 571 328 l 381 383 q 428 258 397 317 q 503 149 460 199 q 603 62 547 100 q 721 0 658 24 l 1111 0 q 1229 62 1174 24 q 1328 149 1285 100 q 1403 258 1372 199 q 1451 383 1435 317 l 1282 383 m 551 650 q 608 753 572 706 q 691 834 643 800 q 796 887 739 868 q 915 906 853 906 q 1035 887 978 906 q 1141 834 1093 868 q 1224 753 1189 800 q 1281 650 1260 706 l 1451 650 q 1401 781 1435 719 q 1319 894 1367 843 q 1212 982 1271 944 q 1086 1042 1153 1019 l 746 1042 q 620 982 679 1019 q 513 894 561 944 q 431 781 465 843 q 381 650 397 719 l 551 650 m 381 622 l 513 622 l 513 581 l 435 581 l 435 535 l 504 535 l 504 490 l 433 490 l 433 410 l 381 410 l 381 622 m 1397 622 l 1458 622 l 1557 481 l 1557 622 l 1610 622 l 1610 410 l 1561 410 l 1449 554 l 1449 410 l 1397 410 l 1397 622 m 2024 622 l 2183 622 l 2183 569 l 2139 569 l 2139 410 l 2068 410 l 2068 571 l 2024 571 l 2024 622 m 919 633 q 878 628 900 633 q 839 608 857 622 q 808 569 821 594 q 796 506 796 544 q 813 444 796 467 q 851 411 831 422 q 908 394 876 397 q 968 411 942 397 q 1010 446 992 422 q 1029 514 1029 469 q 1012 582 1029 558 q 974 617 994 606 q 919 633 949 631 m 910 447 q 879 457 893 450 q 859 476 868 464 q 850 510 850 488 q 856 544 850 531 q 872 567 863 558 q 894 578 882 575 q 915 581 906 581 q 944 572 931 579 q 965 551 956 565 q 975 514 975 538 q 965 476 975 489 q 942 456 954 463 q 910 447 926 449 m 2486 463 q 2512 453 2497 457 q 2544 449 2526 449 q 2569 453 2558 449 q 2579 469 2579 457 q 2563 489 2579 483 q 2528 501 2547 494 q 2494 519 2510 507 q 2479 561 2479 532 q 2488 592 2479 579 q 2509 612 2496 604 q 2539 622 2522 619 q 2571 625 2556 625 q 2625 617 2604 625 l 2621 574 q 2575 583 2601 583 q 2551 581 2564 583 q 2538 564 2538 578 q 2553 547 2538 551 q 2587 535 2568 542 q 2621 517 2606 529 q 2636 476 2636 506 q 2608 422 2636 436 q 2544 408 2581 408 q 2513 410 2529 408 q 2481 417 2496 411 l 2486 463 z "},"¨":{"ha":421,"x_min":50,"x_max":371,"o":"m 371 1013 l 288 1013 l 288 1081 l 313 1081 l 313 1039 l 344 1039 l 344 1114 l 256 1114 l 256 1011 l 231 1011 l 231 1139 l 371 1139 l 371 1013 m 190 1013 l 50 1013 l 50 1140 l 75 1140 l 75 1039 l 165 1039 l 165 1114 l 132 1114 l 132 1067 l 107 1067 l 107 1139 l 190 1139 l 190 1013 z "},"©":{"ha":1011,"x_min":50,"x_max":961,"o":"m 801 307 l 822 288 q 690 166 771 210 q 517 122 610 122 q 257 228 364 122 q 150 488 150 335 q 257 747 150 640 q 517 854 364 854 q 687 810 606 854 q 822 689 768 767 l 697 554 l 525 683 l 626 790 l 746 700 l 679 631 l 601 689 l 642 729 l 663 708 l 644 690 q 675 668 647 688 l 701 699 l 632 751 l 568 685 l 692 592 q 739 642 708 608 q 786 693 769 675 q 667 790 739 756 q 517 825 596 825 q 324 764 411 825 q 201 604 236 703 l 743 239 q 801 307 774 268 m 183 172 q 117 239 183 172 q 50 494 50 306 q 183 817 50 683 q 506 950 317 950 q 828 817 694 950 q 961 494 961 683 q 828 172 961 306 q 506 39 694 39 q 183 172 317 39 m 201 799 q 138 735 201 799 q 75 494 75 672 q 201 190 75 317 q 506 64 328 64 q 810 190 683 64 q 936 494 936 317 q 810 799 936 672 q 506 925 683 925 q 201 799 328 925 z "},"ª":{"ha":781,"x_min":50,"x_max":731,"o":"m 731 379 l 494 379 l 286 756 l 89 400 l 247 400 l 317 524 l 197 524 l 149 433 l 224 433 q 238 456 226 438 q 253 485 249 474 l 219 485 q 201 451 204 458 l 179 451 l 207 506 l 289 506 l 236 413 l 113 413 l 186 544 l 353 544 l 260 379 l 51 379 l 392 992 l 731 379 m 50 333 l 50 357 l 731 357 l 731 333 l 50 333 z "},"«":{"ha":436,"x_min":50,"x_max":386,"o":"m 50 454 l 50 478 l 261 611 l 261 582 l 76 465 l 261 349 l 261 319 l 50 454 m 175 454 l 175 478 l 386 611 l 386 582 l 201 465 l 386 349 l 386 319 l 175 454 z "},"¬":{"ha":629,"x_min":50,"x_max":579,"o":"m 50 517 l 50 542 l 579 542 l 579 264 l 554 264 l 554 517 l 50 517 z "},"®":{"ha":643,"x_min":50,"x_max":593,"o":"m 129 523 q 90 563 129 523 q 50 715 50 603 q 129 907 50 828 q 321 986 208 986 q 513 907 433 986 q 593 715 593 828 q 513 523 593 603 q 321 443 433 443 q 129 523 208 443 m 143 893 q 106 856 143 893 q 69 715 69 819 q 143 537 69 611 q 321 463 217 463 q 497 533 422 463 l 322 533 l 322 590 l 400 601 l 440 560 l 376 560 l 376 575 l 401 575 l 393 585 l 339 578 l 339 550 l 468 550 l 397 625 q 332 610 367 610 q 292 615 304 610 l 292 533 l 169 533 l 169 904 l 332 904 q 436 860 393 904 q 479 756 479 817 q 411 633 479 675 l 501 539 q 574 715 574 614 q 499 893 574 819 q 321 967 425 967 q 143 893 217 967 m 464 756 q 426 849 464 811 q 332 888 388 888 l 292 888 l 292 632 q 332 626 317 626 q 426 664 388 626 q 464 756 464 701 z "},"¯":{"ha":319,"x_min":50,"x_max":269,"o":"m 50 1013 l 50 1038 l 269 1038 l 269 1013 l 50 1013 z "},"°":{"ha":235,"x_min":50,"x_max":185,"o":"m 165 970 q 175 960 165 970 q 185 922 185 950 q 165 875 185 894 q 118 856 144 856 q 70 876 90 856 q 50 922 50 896 q 70 970 50 950 q 118 990 90 990 q 165 970 146 990 m 160 922 q 148 953 160 942 q 118 964 136 964 q 88 952 100 964 q 76 922 76 940 q 88 892 76 904 q 118 881 100 881 q 147 893 135 881 q 160 922 160 906 z "},"±":{"ha":629,"x_min":50,"x_max":579,"o":"m 50 517 l 50 542 l 301 542 l 301 793 l 326 793 l 326 542 l 579 542 l 579 517 l 326 517 l 326 264 l 301 264 l 301 517 l 50 517 m 50 -250 l 50 -225 l 579 -225 l 579 -250 l 50 -250 z "},"²":{"ha":425,"x_min":50,"x_max":375,"o":"m 111 553 l 292 553 l 251 611 q 228 595 243 606 q 206 579 213 585 l 244 579 l 238 588 l 253 597 l 276 561 l 174 561 l 171 576 l 257 635 l 324 536 l 81 536 q 69 597 69 572 q 88 667 69 632 q 138 724 107 701 q 200 765 158 739 q 257 803 242 792 l 350 865 q 295 944 335 914 q 206 974 256 974 q 126 950 164 974 q 68 889 89 926 l 131 819 l 213 882 l 168 928 l 122 890 l 142 869 l 164 888 l 154 899 l 165 908 l 186 885 l 139 850 l 101 893 l 169 949 l 233 881 l 129 800 l 50 886 q 113 963 71 935 q 206 990 154 990 q 326 941 278 990 q 375 819 375 892 q 297 678 375 731 l 111 553 z "},"³":{"ha":464,"x_min":50,"x_max":414,"o":"m 414 718 q 360 590 414 643 q 231 538 307 538 q 103 591 156 538 q 50 721 50 644 l 67 721 q 131 588 67 646 l 390 761 q 330 849 375 815 q 228 883 285 883 l 225 896 l 313 974 l 117 974 l 117 890 l 186 890 l 186 943 l 151 943 l 151 922 l 176 922 l 176 906 l 135 906 l 135 960 l 203 960 l 203 874 l 100 874 l 100 990 l 335 990 l 342 978 l 254 900 q 367 835 319 888 q 414 718 414 782 z "},"´":{"ha":372,"x_min":50,"x_max":322,"o":"m 322 1169 l 50 1013 l 50 1122 l 121 1122 l 121 1097 l 75 1097 l 75 1056 l 231 1144 l 50 1144 l 50 1169 l 322 1169 z "},"µ":{"ha":893,"x_min":50,"x_max":843,"o":"m 50 -107 l 50 803 l 75 803 l 75 368 q 188 118 75 228 l 818 542 l 818 803 l 843 803 l 843 383 q 726 104 843 219 q 446 -11 610 -11 q 218 59 319 -11 q 75 243 117 129 l 75 -107 l 50 -107 z "},"¶":{"ha":1079,"x_min":50,"x_max":1029,"o":"m 857 -208 l 857 540 l 81 540 q 76 479 76 508 q 218 144 76 286 q 557 1 360 1 q 776 53 675 1 l 719 250 l 489 208 l 531 71 l 669 96 l 649 165 l 581 153 l 592 119 l 568 111 l 549 172 l 667 193 l 701 76 l 514 42 l 457 228 l 738 278 l 806 40 q 557 -24 690 -24 q 203 124 356 -24 q 50 482 50 272 q 197 835 50 683 q 554 988 344 988 l 1029 988 l 1029 540 l 967 540 l 967 -208 l 940 -208 l 940 540 l 883 540 l 883 -208 l 857 -208 z "},"·":{"ha":339,"x_min":50,"x_max":289,"o":"m 289 361 l 50 361 l 50 619 l 289 619 l 289 594 l 75 594 l 75 386 l 264 386 l 264 528 l 146 528 l 146 458 l 196 458 l 196 496 l 221 496 l 221 433 l 121 433 l 121 553 l 289 553 l 289 361 z "},"¸":{"ha":258,"x_min":50,"x_max":208,"o":"m 185 -72 q 197 -83 185 -72 q 208 -124 208 -93 q 182 -174 208 -154 q 111 -193 156 -193 l 50 -193 l 50 -171 l 108 -171 q 163 -156 143 -171 q 182 -121 182 -142 q 165 -90 182 -103 q 115 -76 147 -76 l 71 -76 l 71 0 l 96 0 l 96 -51 l 125 -51 q 185 -72 161 -51 z "},"¹":{"ha":242,"x_min":50,"x_max":192,"o":"m 192 556 l 50 556 l 50 915 l 192 1013 l 192 556 z "},"º":{"ha":711,"x_min":50,"x_max":661,"o":"m 660 682 q 572 467 660 556 q 356 379 483 379 q 140 467 229 379 q 51 682 51 556 q 140 898 51 808 q 356 988 229 988 q 571 899 482 988 q 660 682 660 810 m 629 610 l 185 908 q 74 682 74 819 q 156 481 74 564 q 356 399 238 399 q 528 458 451 399 q 629 610 604 517 m 50 333 l 50 357 l 661 357 l 661 333 l 50 333 z "},"»":{"ha":436,"x_min":50,"x_max":386,"o":"m 386 478 l 386 454 l 175 319 l 175 349 l 360 465 l 175 582 l 175 611 l 386 478 m 261 478 l 261 454 l 50 319 l 50 349 l 235 465 l 50 582 l 50 611 l 261 478 z "},"¼":{"ha":1086,"x_min":50,"x_max":1036,"o":"m 260 335 l 50 335 l 50 869 l 260 1013 l 260 335 m 1036 214 l 843 214 l 843 -3 l 625 -3 l 625 214 l 344 214 l 626 664 l 843 664 l 843 236 l 1014 236 l 1014 371 l 889 371 l 889 281 l 963 281 l 963 326 l 939 326 l 939 297 l 917 297 l 917 349 l 985 349 l 985 258 l 867 258 l 867 393 l 1036 393 l 1036 214 m 625 236 l 625 624 l 386 236 l 625 236 m 149 0 l 121 0 l 718 988 l 744 988 l 149 0 z "},"½":{"ha":1043,"x_min":50,"x_max":993,"o":"m 254 325 l 50 325 l 50 856 l 254 994 l 254 325 m 586 17 l 881 17 l 814 114 l 726 56 l 808 56 l 797 71 l 811 81 l 842 38 l 671 38 l 818 136 l 911 0 l 563 0 q 546 86 546 42 q 571 190 546 138 q 643 272 596 240 q 807 381 699 311 q 965 486 915 451 q 883 606 944 560 q 743 653 821 653 q 620 617 676 653 q 533 522 564 582 l 628 419 l 754 515 l 688 585 l 613 526 l 644 492 l 682 521 l 665 538 l 678 549 l 707 518 l 643 469 l 588 529 l 689 607 l 779 511 q 696 450 749 490 q 626 397 643 410 l 514 518 q 607 629 546 589 q 743 669 668 669 q 921 597 849 669 q 993 418 993 525 q 962 302 993 357 q 878 211 931 247 l 586 17 m 146 0 l 118 0 l 715 988 l 742 988 l 146 0 z "},"¾":{"ha":1306,"x_min":50,"x_max":1256,"o":"m 585 585 q 507 396 585 474 q 317 318 429 318 q 128 396 206 318 q 50 585 50 474 l 67 585 q 167 383 67 461 l 560 647 q 471 783 539 731 q 317 835 403 835 l 311 850 l 447 969 l 142 969 l 142 836 l 254 836 l 254 925 l 193 925 l 193 885 l 232 885 l 232 868 l 176 868 l 176 942 l 271 942 l 271 819 l 125 819 l 125 986 l 475 986 l 475 972 l 339 851 q 514 766 443 843 q 585 585 585 689 m 1256 214 l 1063 214 l 1063 -3 l 844 -3 l 844 214 l 564 214 l 846 664 l 1063 664 l 1063 236 l 1233 236 l 1233 371 l 1108 371 l 1108 281 l 1182 281 l 1182 326 l 1158 326 l 1158 297 l 1136 297 l 1136 349 l 1204 349 l 1204 258 l 1086 258 l 1086 393 l 1256 393 l 1256 214 m 844 236 l 844 624 l 606 236 l 844 236 m 368 0 l 340 0 l 938 988 l 964 988 l 368 0 z "},"¿":{"ha":747,"x_min":50,"x_max":697,"o":"m 697 -276 l 463 -275 q 337 -272 378 -275 q 240 -244 296 -268 q 142 -172 185 -221 q 50 58 50 -69 q 148 293 50 196 q 383 390 246 390 l 525 390 q 419 213 514 278 q 83 -11 164 39 q 191 -183 107 -117 q 383 -250 275 -250 l 672 -250 l 672 -43 l 483 -43 l 483 -185 l 600 -185 l 600 -115 l 551 -115 l 551 -153 l 526 -153 l 526 -90 l 625 -90 l 625 -210 l 458 -210 l 458 -18 l 697 -18 l 697 -276 m 547 453 l 308 453 l 308 478 l 522 478 l 522 686 l 333 686 l 333 544 l 451 544 l 451 614 l 401 614 l 401 576 l 376 576 l 376 639 l 476 639 l 476 519 l 308 519 l 308 711 l 547 711 l 547 453 z "},"À":{"ha":1222,"x_min":50,"x_max":1172,"o":"m 1172 0 l 786 0 l 433 639 l 93 25 l 374 25 l 493 243 l 282 243 l 193 81 l 335 81 l 388 178 l 319 178 l 289 122 l 261 122 l 304 203 l 429 203 l 349 56 l 151 56 l 267 268 l 535 268 l 388 0 l 50 0 l 611 1014 l 1172 0 m 747 1013 l 475 1013 l 475 1038 l 656 1038 l 500 1126 l 500 1085 l 546 1085 l 546 1060 l 475 1060 l 475 1169 l 747 1013 z "},"Á":{"ha":1222,"x_min":50,"x_max":1172,"o":"m 1172 0 l 786 0 l 433 639 l 93 25 l 374 25 l 493 243 l 282 243 l 193 81 l 335 81 l 388 178 l 319 178 l 289 122 l 261 122 l 304 203 l 429 203 l 349 56 l 151 56 l 267 268 l 535 268 l 388 0 l 50 0 l 611 1014 l 1172 0 m 747 1140 l 475 983 l 475 1093 l 546 1093 l 546 1068 l 500 1068 l 500 1026 l 656 1115 l 475 1115 l 475 1140 l 747 1140 z "},"Â":{"ha":1222,"x_min":50,"x_max":1172,"o":"m 1172 0 l 786 0 l 433 639 l 93 25 l 374 25 l 493 243 l 282 243 l 193 81 l 335 81 l 388 178 l 319 178 l 289 122 l 261 122 l 304 203 l 429 203 l 349 56 l 151 56 l 267 268 l 535 268 l 388 0 l 50 0 l 611 1014 l 1172 0 m 753 997 l 739 976 l 611 1057 l 482 976 l 469 997 l 611 1086 l 753 997 m 775 1043 l 763 1021 l 611 1117 l 460 1021 l 446 1043 l 611 1146 l 775 1043 z "},"Ã":{"ha":1222,"x_min":50,"x_max":1172,"o":"m 1172 0 l 786 0 l 433 639 l 93 25 l 374 25 l 493 243 l 282 243 l 193 81 l 335 81 l 388 178 l 319 178 l 289 122 l 261 122 l 304 203 l 429 203 l 349 56 l 151 56 l 267 268 l 535 268 l 388 0 l 50 0 l 611 1014 l 1172 0 m 815 1042 l 793 1031 q 701 1094 758 1094 q 619 1053 672 1094 q 518 1013 567 1013 q 437 1035 479 1013 q 378 1089 394 1057 l 400 1100 q 449 1056 413 1074 q 518 1038 485 1038 q 609 1078 557 1038 q 701 1119 661 1119 q 815 1042 774 1119 m 843 1107 l 821 1094 q 697 1158 786 1158 q 610 1117 664 1158 q 518 1076 557 1076 q 451 1098 482 1076 q 403 1153 421 1119 l 425 1164 q 518 1101 456 1101 q 601 1142 547 1101 q 697 1183 656 1183 q 785 1162 744 1183 q 843 1107 825 1140 z "},"Ä":{"ha":1222,"x_min":50,"x_max":1172,"o":"m 1172 0 l 786 0 l 433 639 l 93 25 l 374 25 l 493 243 l 282 243 l 193 81 l 335 81 l 388 178 l 319 178 l 289 122 l 261 122 l 304 203 l 429 203 l 349 56 l 151 56 l 267 268 l 535 268 l 388 0 l 50 0 l 611 1014 l 1172 0 m 771 1013 l 688 1013 l 688 1081 l 713 1081 l 713 1039 l 744 1039 l 744 1114 l 656 1114 l 656 1011 l 631 1011 l 631 1139 l 771 1139 l 771 1013 m 590 1013 l 450 1013 l 450 1140 l 475 1140 l 475 1039 l 565 1039 l 565 1114 l 532 1114 l 532 1067 l 507 1067 l 507 1139 l 590 1139 l 590 1013 z "},"Å":{"ha":1222,"x_min":50,"x_max":1172,"o":"m 1172 0 l 786 0 l 433 639 l 93 25 l 374 25 l 493 243 l 282 243 l 193 81 l 335 81 l 388 178 l 319 178 l 289 122 l 261 122 l 304 203 l 429 203 l 349 56 l 151 56 l 267 268 l 535 268 l 388 0 l 50 0 l 611 1014 l 1172 0 m 661 1106 q 671 1096 661 1106 q 681 1058 681 1086 q 661 1011 681 1031 q 614 992 642 992 q 566 1012 586 992 q 546 1058 546 1032 q 566 1106 546 1086 q 614 1126 586 1126 q 661 1106 642 1126 m 656 1058 q 644 1089 656 1078 q 614 1100 633 1100 q 584 1088 596 1100 q 572 1058 572 1076 q 584 1028 572 1040 q 614 1017 596 1017 q 643 1029 631 1017 q 656 1058 656 1042 z "},"Æ":{"ha":1453,"x_min":50,"x_max":1403,"o":"m 1403 0 l 653 0 l 653 935 l 93 25 l 382 25 l 507 243 l 296 243 l 201 81 l 343 81 l 401 178 l 333 178 l 297 122 l 269 122 l 318 203 l 443 203 l 357 56 l 160 56 l 281 268 l 549 268 l 396 0 l 50 0 l 653 988 l 1361 988 l 1361 729 l 1115 729 l 1115 921 l 1282 921 l 1282 796 l 1183 796 l 1183 857 l 1208 857 l 1208 821 l 1257 821 l 1257 896 l 1140 896 l 1140 754 l 1335 754 l 1335 963 l 1004 963 l 1004 640 l 1329 640 l 1329 615 l 1004 615 l 1004 25 l 1378 25 l 1378 290 l 1138 290 l 1138 92 l 1304 92 l 1304 224 l 1214 224 l 1214 164 l 1271 164 l 1271 139 l 1189 139 l 1189 249 l 1329 249 l 1329 67 l 1113 67 l 1113 315 l 1403 315 l 1403 0 z "},"Ç":{"ha":1031,"x_min":50,"x_max":981,"o":"m 981 215 q 797 49 910 108 q 557 -11 685 -11 q 198 135 346 -11 q 50 493 50 282 q 198 852 50 704 q 557 1000 346 1000 q 792 942 679 1000 q 976 778 904 883 l 808 596 l 581 767 l 714 907 l 867 792 l 783 703 l 688 775 l 732 821 l 750 803 l 725 778 l 781 736 l 829 789 l 717 874 l 618 769 l 806 629 l 944 779 q 773 923 875 871 q 557 975 671 975 q 279 887 404 975 q 104 654 154 799 l 878 135 q 958 229 926 178 l 981 215 m 632 -72 q 644 -83 632 -72 q 656 -124 656 -93 q 629 -174 656 -154 q 558 -193 603 -193 l 497 -193 l 497 -171 l 556 -171 q 610 -156 590 -171 q 629 -121 629 -142 q 612 -90 629 -103 q 563 -76 594 -76 l 518 -76 l 518 0 l 543 0 l 543 -51 l 572 -51 q 632 -72 608 -51 z "},"È":{"ha":947,"x_min":50,"x_max":897,"o":"m 897 0 l 50 0 l 50 988 l 856 988 l 856 729 l 610 729 l 610 921 l 776 921 l 776 796 l 678 796 l 678 857 l 703 857 l 703 821 l 751 821 l 751 896 l 635 896 l 635 754 l 829 754 l 829 963 l 401 963 l 401 640 l 824 640 l 824 615 l 401 615 l 401 25 l 872 25 l 872 290 l 632 290 l 632 92 l 799 92 l 799 224 l 708 224 l 708 164 l 765 164 l 765 139 l 683 139 l 683 249 l 824 249 l 824 67 l 607 67 l 607 315 l 897 315 l 897 0 m 610 1013 l 338 1013 l 338 1038 l 518 1038 l 363 1126 l 363 1085 l 408 1085 l 408 1060 l 338 1060 l 338 1169 l 610 1013 z "},"É":{"ha":947,"x_min":50,"x_max":897,"o":"m 897 0 l 50 0 l 50 988 l 856 988 l 856 729 l 610 729 l 610 921 l 776 921 l 776 796 l 678 796 l 678 857 l 703 857 l 703 821 l 751 821 l 751 896 l 635 896 l 635 754 l 829 754 l 829 963 l 401 963 l 401 640 l 824 640 l 824 615 l 401 615 l 401 25 l 872 25 l 872 290 l 632 290 l 632 92 l 799 92 l 799 224 l 708 224 l 708 164 l 765 164 l 765 139 l 683 139 l 683 249 l 824 249 l 824 67 l 607 67 l 607 315 l 897 315 l 897 0 m 610 1169 l 338 1013 l 338 1122 l 408 1122 l 408 1097 l 363 1097 l 363 1056 l 518 1144 l 338 1144 l 338 1169 l 610 1169 z "},"Ê":{"ha":947,"x_min":50,"x_max":897,"o":"m 897 0 l 50 0 l 50 988 l 856 988 l 856 729 l 610 729 l 610 921 l 776 921 l 776 796 l 678 796 l 678 857 l 703 857 l 703 821 l 751 821 l 751 896 l 635 896 l 635 754 l 829 754 l 829 963 l 401 963 l 401 640 l 824 640 l 824 615 l 401 615 l 401 25 l 872 25 l 872 290 l 632 290 l 632 92 l 799 92 l 799 224 l 708 224 l 708 164 l 765 164 l 765 139 l 683 139 l 683 249 l 824 249 l 824 67 l 607 67 l 607 315 l 897 315 l 897 0 m 615 1031 l 601 1010 l 474 1090 l 344 1010 l 332 1031 l 474 1119 l 615 1031 m 638 1076 l 625 1054 l 474 1150 l 322 1054 l 308 1076 l 474 1179 l 638 1076 z "},"Ë":{"ha":947,"x_min":50,"x_max":897,"o":"m 897 0 l 50 0 l 50 988 l 856 988 l 856 729 l 610 729 l 610 921 l 776 921 l 776 796 l 678 796 l 678 857 l 703 857 l 703 821 l 751 821 l 751 896 l 635 896 l 635 754 l 829 754 l 829 963 l 401 963 l 401 640 l 824 640 l 824 615 l 401 615 l 401 25 l 872 25 l 872 290 l 632 290 l 632 92 l 799 92 l 799 224 l 708 224 l 708 164 l 765 164 l 765 139 l 683 139 l 683 249 l 824 249 l 824 67 l 607 67 l 607 315 l 897 315 l 897 0 m 633 1013 l 550 1013 l 550 1081 l 575 1081 l 575 1039 l 607 1039 l 607 1114 l 518 1114 l 518 1011 l 493 1011 l 493 1139 l 633 1139 l 633 1013 m 453 1013 l 313 1013 l 313 1140 l 338 1140 l 338 1039 l 428 1039 l 428 1114 l 394 1114 l 394 1067 l 369 1067 l 369 1139 l 453 1139 l 453 1013 z "},"Ì":{"ha":443,"x_min":50,"x_max":393,"o":"m 393 0 l 50 0 l 50 988 l 393 988 l 393 0 m 357 1013 l 85 1013 l 85 1038 l 265 1038 l 110 1126 l 110 1085 l 156 1085 l 156 1060 l 85 1060 l 85 1169 l 357 1013 z "},"Í":{"ha":443,"x_min":50,"x_max":393,"o":"m 393 0 l 50 0 l 50 988 l 393 988 l 393 0 m 357 1169 l 85 1013 l 85 1122 l 156 1122 l 156 1097 l 110 1097 l 110 1056 l 265 1144 l 85 1144 l 85 1169 l 357 1169 z "},"Î":{"ha":443,"x_min":50,"x_max":393,"o":"m 393 0 l 50 0 l 50 988 l 393 988 l 393 0 m 364 1031 l 350 1010 l 222 1090 l 93 1010 l 81 1031 l 222 1119 l 364 1031 m 386 1076 l 374 1054 l 222 1150 l 71 1054 l 57 1076 l 222 1179 l 386 1076 z "},"Ï":{"ha":443,"x_min":50,"x_max":393,"o":"m 393 0 l 50 0 l 50 988 l 393 988 l 393 0 m 382 1013 l 299 1013 l 299 1081 l 324 1081 l 324 1039 l 356 1039 l 356 1114 l 267 1114 l 267 1011 l 242 1011 l 242 1139 l 382 1139 l 382 1013 m 201 1013 l 61 1013 l 61 1140 l 86 1140 l 86 1039 l 176 1039 l 176 1114 l 143 1114 l 143 1067 l 118 1067 l 118 1139 l 201 1139 l 201 1013 z "},"Ð":{"ha":1165,"x_min":50,"x_max":1115,"o":"m 50 517 l 50 542 l 147 542 l 147 988 l 621 988 q 971 843 826 988 q 1115 493 1115 699 q 969 144 1115 289 q 619 0 824 0 l 147 0 l 147 517 l 50 517 m 1090 493 q 953 826 1090 689 q 621 963 817 963 l 490 963 l 490 542 l 579 542 l 579 517 l 490 517 l 490 25 q 554 24 511 25 q 619 24 597 24 q 952 161 814 24 q 1090 493 1090 299 z "},"Ñ":{"ha":976,"x_min":50,"x_max":926,"o":"m 926 -11 l 75 572 l 75 25 l 340 25 l 340 257 l 142 393 l 142 99 l 272 99 l 272 179 l 213 221 l 213 144 l 188 144 l 188 268 l 297 192 l 297 74 l 117 74 l 117 440 l 365 271 l 365 0 l 50 0 l 50 1011 l 901 425 l 901 975 l 636 975 l 636 743 l 835 607 l 835 901 l 703 901 l 703 821 l 763 779 l 763 856 l 788 856 l 788 732 l 678 808 l 678 926 l 860 926 l 860 560 l 611 729 l 611 1000 l 926 1000 l 926 -11 m 693 1042 l 671 1031 q 579 1094 636 1094 q 497 1053 550 1094 q 396 1013 444 1013 q 315 1035 357 1013 q 256 1089 272 1057 l 278 1100 q 326 1056 290 1074 q 396 1038 363 1038 q 487 1078 435 1038 q 579 1119 539 1119 q 693 1042 651 1119 m 721 1107 l 699 1094 q 575 1158 664 1158 q 488 1117 542 1158 q 396 1076 435 1076 q 329 1098 360 1076 q 281 1153 299 1119 l 303 1164 q 396 1101 333 1101 q 479 1142 425 1101 q 575 1183 533 1183 q 663 1162 622 1183 q 721 1107 703 1140 z "},"Ò":{"ha":1114,"x_min":50,"x_max":1064,"o":"m 916 852 q 990 778 916 852 q 1064 493 1064 704 q 916 135 1064 282 q 557 -11 768 -11 q 198 135 346 -11 q 50 493 50 282 q 198 852 50 704 q 557 1000 346 1000 q 916 852 768 1000 m 1024 374 l 269 879 q 127 710 178 811 q 76 493 76 608 q 217 153 76 293 q 557 13 357 13 q 851 113 721 13 q 1024 374 982 214 m 693 1019 l 421 1019 l 421 1044 l 601 1044 l 446 1133 l 446 1092 l 492 1092 l 492 1067 l 421 1067 l 421 1176 l 693 1019 z "},"Ó":{"ha":1114,"x_min":50,"x_max":1064,"o":"m 916 852 q 990 778 916 852 q 1064 493 1064 704 q 916 135 1064 282 q 557 -11 768 -11 q 198 135 346 -11 q 50 493 50 282 q 198 852 50 704 q 557 1000 346 1000 q 916 852 768 1000 m 1024 374 l 269 879 q 127 710 178 811 q 76 493 76 608 q 217 153 76 293 q 557 13 357 13 q 851 113 721 13 q 1024 374 982 214 m 693 1169 l 421 1013 l 421 1122 l 492 1122 l 492 1097 l 446 1097 l 446 1056 l 601 1144 l 421 1144 l 421 1169 l 693 1169 z "},"Ô":{"ha":1114,"x_min":50,"x_max":1064,"o":"m 916 852 q 990 778 916 852 q 1064 493 1064 704 q 916 135 1064 282 q 557 -11 768 -11 q 198 135 346 -11 q 50 493 50 282 q 198 852 50 704 q 557 1000 346 1000 q 916 852 768 1000 m 1024 374 l 269 879 q 127 710 178 811 q 76 493 76 608 q 217 153 76 293 q 557 13 357 13 q 851 113 721 13 q 1024 374 982 214 m 699 1031 l 685 1010 l 557 1090 l 428 1010 l 415 1031 l 557 1119 l 699 1031 m 721 1076 l 708 1054 l 557 1150 l 406 1054 l 392 1076 l 557 1179 l 721 1076 z "},"Õ":{"ha":1114,"x_min":50,"x_max":1064,"o":"m 916 852 q 990 778 916 852 q 1064 493 1064 704 q 916 135 1064 282 q 557 -11 768 -11 q 198 135 346 -11 q 50 493 50 282 q 198 852 50 704 q 557 1000 346 1000 q 916 852 768 1000 m 1024 374 l 269 879 q 127 710 178 811 q 76 493 76 608 q 217 153 76 293 q 557 13 357 13 q 851 113 721 13 q 1024 374 982 214 m 761 1050 l 739 1039 q 647 1103 704 1103 q 565 1062 618 1103 q 464 1021 513 1021 q 383 1043 425 1021 q 324 1097 340 1065 l 346 1108 q 394 1064 358 1082 q 464 1046 431 1046 q 555 1087 503 1046 q 647 1128 607 1128 q 761 1050 719 1128 m 789 1115 l 767 1103 q 643 1167 732 1167 q 556 1126 610 1167 q 464 1085 503 1085 q 397 1106 428 1085 q 349 1161 367 1128 l 371 1172 q 464 1110 403 1110 q 547 1151 492 1110 q 643 1192 603 1192 q 731 1170 690 1192 q 789 1115 771 1149 z "},"Ö":{"ha":1114,"x_min":50,"x_max":1064,"o":"m 916 852 q 990 778 916 852 q 1064 493 1064 704 q 916 135 1064 282 q 557 -11 768 -11 q 198 135 346 -11 q 50 493 50 282 q 198 852 50 704 q 557 1000 346 1000 q 916 852 768 1000 m 1024 374 l 269 879 q 127 710 178 811 q 76 493 76 608 q 217 153 76 293 q 557 13 357 13 q 851 113 721 13 q 1024 374 982 214 m 717 1018 l 633 1018 l 633 1086 l 658 1086 l 658 1044 l 690 1044 l 690 1119 l 601 1119 l 601 1017 l 576 1017 l 576 1144 l 717 1144 l 717 1018 m 536 1018 l 396 1018 l 396 1146 l 421 1146 l 421 1044 l 511 1044 l 511 1119 l 478 1119 l 478 1072 l 453 1072 l 453 1144 l 536 1144 l 536 1018 z "},"×":{"ha":493,"x_min":50,"x_max":443,"o":"m 51 707 l 69 725 l 246 547 l 424 725 l 442 707 l 264 529 l 443 351 l 425 333 l 246 511 l 68 333 l 50 351 l 229 529 l 51 707 z "},"Ø":{"ha":1114,"x_min":50,"x_max":1064,"o":"m 1064 493 q 916 135 1064 282 q 557 -11 768 -11 q 208 126 354 -11 l 125 43 l 107 61 l 190 144 q 50 493 50 296 q 198 852 50 704 q 557 1000 346 1000 q 906 860 758 1000 l 989 943 l 1007 926 l 924 842 q 1064 493 1064 694 m 1024 374 l 269 879 q 127 710 178 811 q 76 493 76 608 q 217 153 76 293 q 557 13 357 13 q 851 113 721 13 q 1024 374 982 214 z "},"Ù":{"ha":893,"x_min":50,"x_max":843,"o":"m 843 383 q 726 104 843 219 q 446 -11 610 -11 q 165 103 281 -11 q 50 383 50 218 l 50 975 l 75 975 l 75 383 q 188 118 75 231 l 818 542 l 818 975 l 843 975 l 843 383 m 582 1013 l 310 1013 l 310 1038 l 490 1038 l 335 1126 l 335 1085 l 381 1085 l 381 1060 l 310 1060 l 310 1169 l 582 1013 z "},"Ú":{"ha":893,"x_min":50,"x_max":843,"o":"m 843 383 q 726 104 843 219 q 446 -11 610 -11 q 165 103 281 -11 q 50 383 50 218 l 50 975 l 75 975 l 75 383 q 188 118 75 231 l 818 542 l 818 975 l 843 975 l 843 383 m 582 1169 l 310 1013 l 310 1122 l 381 1122 l 381 1097 l 335 1097 l 335 1056 l 490 1144 l 310 1144 l 310 1169 l 582 1169 z "},"Û":{"ha":893,"x_min":50,"x_max":843,"o":"m 843 383 q 726 104 843 219 q 446 -11 610 -11 q 165 103 281 -11 q 50 383 50 218 l 50 975 l 75 975 l 75 383 q 188 118 75 231 l 818 542 l 818 975 l 843 975 l 843 383 m 589 1031 l 575 1010 l 447 1090 l 318 1010 l 306 1031 l 447 1119 l 589 1031 m 611 1076 l 599 1054 l 447 1150 l 296 1054 l 282 1076 l 447 1179 l 611 1076 z "},"Ü":{"ha":893,"x_min":50,"x_max":843,"o":"m 843 383 q 726 104 843 219 q 446 -11 610 -11 q 165 103 281 -11 q 50 383 50 218 l 50 975 l 75 975 l 75 383 q 188 118 75 231 l 818 542 l 818 975 l 843 975 l 843 383 m 607 1013 l 524 1013 l 524 1081 l 549 1081 l 549 1039 l 581 1039 l 581 1114 l 492 1114 l 492 1011 l 467 1011 l 467 1139 l 607 1139 l 607 1013 m 426 1013 l 286 1013 l 286 1140 l 311 1140 l 311 1039 l 401 1039 l 401 1114 l 368 1114 l 368 1067 l 343 1067 l 343 1139 l 426 1139 l 426 1013 z "},"Ý":{"ha":1232,"x_min":50,"x_max":1182,"o":"m 1182 988 l 783 503 l 783 0 l 440 0 l 440 511 l 50 988 l 440 988 l 794 556 l 1129 963 l 853 963 l 746 828 l 915 828 l 964 890 l 897 890 l 878 865 l 847 865 l 885 915 l 1017 915 l 926 803 l 693 803 l 840 988 l 1182 988 m 797 1169 l 525 1013 l 525 1122 l 596 1122 l 596 1097 l 550 1097 l 550 1056 l 706 1144 l 525 1144 l 525 1169 l 797 1169 z "},"Þ":{"ha":1058,"x_min":50,"x_max":1008,"o":"m 911 751 q 960 702 911 751 q 1008 515 1008 653 q 911 281 1008 378 q 786 200 849 218 q 631 182 724 182 l 407 182 l 407 0 l 50 0 l 50 988 l 407 988 l 407 849 l 675 849 q 911 751 814 849 m 975 585 q 867 757 951 690 q 675 824 783 824 l 407 824 l 407 204 l 975 585 z "},"ß":{"ha":1354,"x_min":50,"x_max":1304,"o":"m 1304 774 l 1138 593 l 911 764 q 1043 906 933 789 l 1197 789 l 1113 701 l 1017 774 l 1061 818 l 1079 801 l 1054 776 l 1110 735 l 1158 786 l 1046 872 l 949 768 l 1135 626 l 1275 779 q 1147 922 1232 869 q 963 975 1063 975 q 752 902 846 975 q 628 715 658 829 q 856 569 675 685 q 1135 388 1038 454 q 1225 213 1225 324 q 1166 60 1225 119 q 1014 0 1107 0 l 711 0 l 850 204 l 1072 57 l 817 57 l 861 121 l 882 106 l 865 82 l 988 82 l 857 169 l 758 25 l 1014 25 q 1132 68 1085 25 l 760 317 q 636 451 681 369 q 592 628 592 532 q 676 865 592 761 q 421 975 574 975 q 210 902 304 975 q 86 715 117 829 q 315 569 133 685 q 593 388 496 454 q 683 213 683 324 q 624 60 683 119 q 472 0 565 0 l 169 0 l 308 204 l 531 57 l 275 57 l 319 121 l 340 106 l 324 82 l 446 82 l 315 169 l 217 25 l 472 25 q 590 68 543 25 l 218 317 q 94 451 139 369 q 50 628 50 532 q 158 891 50 782 q 421 1000 267 1000 q 690 882 581 1000 q 963 1000 801 1000 q 1167 940 1076 1000 q 1304 774 1257 879 z "},"à":{"ha":1222,"x_min":50,"x_max":1172,"o":"m 1172 0 l 786 0 l 433 639 l 93 25 l 374 25 l 493 243 l 282 243 l 193 81 l 335 81 l 388 178 l 319 178 l 289 122 l 261 122 l 304 203 l 429 203 l 349 56 l 151 56 l 267 268 l 535 268 l 388 0 l 50 0 l 611 1014 l 1172 0 m 747 1013 l 475 1013 l 475 1038 l 656 1038 l 500 1126 l 500 1085 l 546 1085 l 546 1060 l 475 1060 l 475 1169 l 747 1013 z "},"á":{"ha":1222,"x_min":50,"x_max":1172,"o":"m 1172 0 l 786 0 l 433 639 l 93 25 l 374 25 l 493 243 l 282 243 l 193 81 l 335 81 l 388 178 l 319 178 l 289 122 l 261 122 l 304 203 l 429 203 l 349 56 l 151 56 l 267 268 l 535 268 l 388 0 l 50 0 l 611 1014 l 1172 0 m 747 1143 l 475 986 l 475 1096 l 546 1096 l 546 1071 l 500 1071 l 500 1029 l 656 1118 l 475 1118 l 475 1143 l 747 1143 z "},"â":{"ha":1222,"x_min":50,"x_max":1172,"o":"m 1172 0 l 786 0 l 433 639 l 93 25 l 374 25 l 493 243 l 282 243 l 193 81 l 335 81 l 388 178 l 319 178 l 289 122 l 261 122 l 304 203 l 429 203 l 349 56 l 151 56 l 267 268 l 535 268 l 388 0 l 50 0 l 611 1014 l 1172 0 m 753 993 l 739 972 l 611 1053 l 482 972 l 469 993 l 611 1082 l 753 993 m 775 1039 l 763 1017 l 611 1113 l 460 1017 l 446 1039 l 611 1142 l 775 1039 z "},"ã":{"ha":1222,"x_min":50,"x_max":1172,"o":"m 1172 0 l 786 0 l 433 639 l 93 25 l 374 25 l 493 243 l 282 243 l 193 81 l 335 81 l 388 178 l 319 178 l 289 122 l 261 122 l 304 203 l 429 203 l 349 56 l 151 56 l 267 268 l 535 268 l 388 0 l 50 0 l 611 1014 l 1172 0 m 815 1042 l 793 1031 q 701 1094 758 1094 q 619 1053 672 1094 q 518 1013 567 1013 q 437 1035 479 1013 q 378 1089 394 1057 l 400 1100 q 449 1056 413 1074 q 518 1038 485 1038 q 609 1078 557 1038 q 701 1119 661 1119 q 815 1042 774 1119 m 843 1107 l 821 1094 q 697 1158 786 1158 q 610 1117 664 1158 q 518 1076 557 1076 q 451 1098 482 1076 q 403 1153 421 1119 l 425 1164 q 518 1101 456 1101 q 601 1142 547 1101 q 697 1183 656 1183 q 785 1162 744 1183 q 843 1107 825 1140 z "},"ä":{"ha":1222,"x_min":50,"x_max":1172,"o":"m 1172 0 l 786 0 l 433 639 l 93 25 l 374 25 l 493 243 l 282 243 l 193 81 l 335 81 l 388 178 l 319 178 l 289 122 l 261 122 l 304 203 l 429 203 l 349 56 l 151 56 l 267 268 l 535 268 l 388 0 l 50 0 l 611 1014 l 1172 0 m 771 1013 l 688 1013 l 688 1081 l 713 1081 l 713 1039 l 744 1039 l 744 1114 l 656 1114 l 656 1011 l 631 1011 l 631 1139 l 771 1139 l 771 1013 m 590 1013 l 450 1013 l 450 1140 l 475 1140 l 475 1039 l 565 1039 l 565 1114 l 532 1114 l 532 1067 l 507 1067 l 507 1139 l 590 1139 l 590 1013 z "},"å":{"ha":1222,"x_min":50,"x_max":1172,"o":"m 1172 0 l 786 0 l 433 639 l 93 25 l 374 25 l 493 243 l 282 243 l 193 81 l 335 81 l 388 178 l 319 178 l 289 122 l 261 122 l 304 203 l 429 203 l 349 56 l 151 56 l 267 268 l 535 268 l 388 0 l 50 0 l 611 1014 l 1172 0 m 660 1103 q 669 1093 660 1103 q 679 1056 679 1083 q 659 1008 679 1028 q 613 989 639 989 q 565 1009 585 989 q 544 1056 544 1029 q 565 1103 544 1083 q 613 1124 585 1124 q 660 1103 640 1124 m 654 1056 q 642 1086 654 1075 q 613 1097 631 1097 q 583 1085 594 1097 q 571 1056 571 1074 q 583 1026 571 1038 q 613 1014 594 1014 q 642 1026 629 1014 q 654 1056 654 1039 z "},"æ":{"ha":1453,"x_min":50,"x_max":1403,"o":"m 1403 0 l 653 0 l 653 935 l 93 25 l 382 25 l 507 243 l 296 243 l 201 81 l 343 81 l 401 178 l 333 178 l 297 122 l 269 122 l 318 203 l 443 203 l 357 56 l 160 56 l 281 268 l 549 268 l 396 0 l 50 0 l 653 988 l 1361 988 l 1361 729 l 1115 729 l 1115 921 l 1282 921 l 1282 796 l 1183 796 l 1183 857 l 1208 857 l 1208 821 l 1257 821 l 1257 896 l 1140 896 l 1140 754 l 1335 754 l 1335 963 l 1004 963 l 1004 640 l 1329 640 l 1329 615 l 1004 615 l 1004 25 l 1378 25 l 1378 290 l 1138 290 l 1138 92 l 1304 92 l 1304 224 l 1214 224 l 1214 164 l 1271 164 l 1271 139 l 1189 139 l 1189 249 l 1329 249 l 1329 67 l 1113 67 l 1113 315 l 1403 315 l 1403 0 z "},"ç":{"ha":1031,"x_min":50,"x_max":981,"o":"m 981 215 q 797 49 910 108 q 557 -11 685 -11 q 198 135 346 -11 q 50 493 50 282 q 198 852 50 704 q 557 1000 346 1000 q 792 942 679 1000 q 976 778 904 883 l 808 596 l 581 767 l 714 907 l 867 792 l 783 703 l 688 775 l 732 821 l 750 803 l 725 778 l 781 736 l 829 789 l 717 874 l 618 769 l 806 629 l 944 779 q 773 923 875 871 q 557 975 671 975 q 279 887 404 975 q 104 654 154 799 l 878 135 q 958 229 926 178 l 981 215 m 626 -72 q 638 -83 626 -72 q 650 -124 650 -93 q 624 -174 650 -154 q 553 -193 597 -193 l 492 -193 l 492 -171 l 550 -171 q 604 -156 585 -171 q 624 -121 624 -142 q 606 -90 624 -103 q 557 -76 589 -76 l 513 -76 l 513 0 l 538 0 l 538 -51 l 567 -51 q 626 -72 603 -51 z "},"è":{"ha":947,"x_min":50,"x_max":897,"o":"m 897 0 l 50 0 l 50 988 l 856 988 l 856 729 l 610 729 l 610 921 l 776 921 l 776 796 l 678 796 l 678 857 l 703 857 l 703 821 l 751 821 l 751 896 l 635 896 l 635 754 l 829 754 l 829 963 l 401 963 l 401 640 l 824 640 l 824 615 l 401 615 l 401 25 l 872 25 l 872 290 l 632 290 l 632 92 l 799 92 l 799 224 l 708 224 l 708 164 l 765 164 l 765 139 l 683 139 l 683 249 l 824 249 l 824 67 l 607 67 l 607 315 l 897 315 l 897 0 m 610 1013 l 338 1013 l 338 1038 l 518 1038 l 363 1126 l 363 1085 l 408 1085 l 408 1060 l 338 1060 l 338 1169 l 610 1013 z "},"é":{"ha":947,"x_min":50,"x_max":897,"o":"m 897 0 l 50 0 l 50 988 l 856 988 l 856 729 l 610 729 l 610 921 l 776 921 l 776 796 l 678 796 l 678 857 l 703 857 l 703 821 l 751 821 l 751 896 l 635 896 l 635 754 l 829 754 l 829 963 l 401 963 l 401 640 l 824 640 l 824 615 l 401 615 l 401 25 l 872 25 l 872 290 l 632 290 l 632 92 l 799 92 l 799 224 l 708 224 l 708 164 l 765 164 l 765 139 l 683 139 l 683 249 l 824 249 l 824 67 l 607 67 l 607 315 l 897 315 l 897 0 m 610 1169 l 338 1013 l 338 1122 l 408 1122 l 408 1097 l 363 1097 l 363 1056 l 518 1144 l 338 1144 l 338 1169 l 610 1169 z "},"ê":{"ha":947,"x_min":50,"x_max":897,"o":"m 897 0 l 50 0 l 50 988 l 856 988 l 856 729 l 610 729 l 610 921 l 776 921 l 776 796 l 678 796 l 678 857 l 703 857 l 703 821 l 751 821 l 751 896 l 635 896 l 635 754 l 829 754 l 829 963 l 401 963 l 401 640 l 824 640 l 824 615 l 401 615 l 401 25 l 872 25 l 872 290 l 632 290 l 632 92 l 799 92 l 799 224 l 708 224 l 708 164 l 765 164 l 765 139 l 683 139 l 683 249 l 824 249 l 824 67 l 607 67 l 607 315 l 897 315 l 897 0 m 615 1031 l 601 1010 l 474 1090 l 344 1010 l 332 1031 l 474 1119 l 615 1031 m 638 1076 l 625 1054 l 474 1150 l 322 1054 l 308 1076 l 474 1179 l 638 1076 z "},"ë":{"ha":947,"x_min":50,"x_max":897,"o":"m 897 0 l 50 0 l 50 988 l 856 988 l 856 729 l 610 729 l 610 921 l 776 921 l 776 796 l 678 796 l 678 857 l 703 857 l 703 821 l 751 821 l 751 896 l 635 896 l 635 754 l 829 754 l 829 963 l 401 963 l 401 640 l 824 640 l 824 615 l 401 615 l 401 25 l 872 25 l 872 290 l 632 290 l 632 92 l 799 92 l 799 224 l 708 224 l 708 164 l 765 164 l 765 139 l 683 139 l 683 249 l 824 249 l 824 67 l 607 67 l 607 315 l 897 315 l 897 0 m 633 1013 l 550 1013 l 550 1081 l 575 1081 l 575 1039 l 607 1039 l 607 1114 l 518 1114 l 518 1011 l 493 1011 l 493 1139 l 633 1139 l 633 1013 m 453 1013 l 313 1013 l 313 1140 l 338 1140 l 338 1039 l 428 1039 l 428 1114 l 394 1114 l 394 1067 l 369 1067 l 369 1139 l 453 1139 l 453 1013 z "},"ì":{"ha":443,"x_min":50,"x_max":393,"o":"m 393 0 l 50 0 l 50 988 l 393 988 l 393 0 m 357 1013 l 85 1013 l 85 1038 l 265 1038 l 110 1126 l 110 1085 l 156 1085 l 156 1060 l 85 1060 l 85 1169 l 357 1013 z "},"í":{"ha":443,"x_min":50,"x_max":393,"o":"m 393 0 l 50 0 l 50 988 l 393 988 l 393 0 m 357 1169 l 85 1013 l 85 1122 l 156 1122 l 156 1097 l 110 1097 l 110 1056 l 265 1144 l 85 1144 l 85 1169 l 357 1169 z "},"î":{"ha":443,"x_min":50,"x_max":393,"o":"m 393 0 l 50 0 l 50 988 l 393 988 l 393 0 m 364 1031 l 350 1010 l 222 1090 l 93 1010 l 81 1031 l 222 1119 l 364 1031 m 386 1076 l 374 1054 l 222 1150 l 71 1054 l 57 1076 l 222 1179 l 386 1076 z "},"ï":{"ha":443,"x_min":50,"x_max":393,"o":"m 393 0 l 50 0 l 50 988 l 393 988 l 393 0 m 382 1013 l 299 1013 l 299 1081 l 324 1081 l 324 1039 l 356 1039 l 356 1114 l 267 1114 l 267 1011 l 242 1011 l 242 1139 l 382 1139 l 382 1013 m 201 1013 l 61 1013 l 61 1140 l 86 1140 l 86 1039 l 176 1039 l 176 1114 l 143 1114 l 143 1067 l 118 1067 l 118 1139 l 201 1139 l 201 1013 z "},"ð":{"ha":1165,"x_min":50,"x_max":1115,"o":"m 50 517 l 50 542 l 147 542 l 147 988 l 621 988 q 971 843 826 988 q 1115 493 1115 699 q 969 144 1115 289 q 619 0 824 0 l 147 0 l 147 517 l 50 517 m 1090 493 q 953 826 1090 689 q 621 963 817 963 l 490 963 l 490 542 l 579 542 l 579 517 l 490 517 l 490 25 q 554 24 511 25 q 619 24 597 24 q 952 161 814 24 q 1090 493 1090 299 z "},"ñ":{"ha":976,"x_min":50,"x_max":926,"o":"m 926 -11 l 75 572 l 75 25 l 340 25 l 340 257 l 142 393 l 142 99 l 272 99 l 272 179 l 213 221 l 213 144 l 188 144 l 188 268 l 297 192 l 297 74 l 117 74 l 117 440 l 365 271 l 365 0 l 50 0 l 50 1011 l 901 425 l 901 975 l 636 975 l 636 743 l 835 607 l 835 901 l 703 901 l 703 821 l 763 779 l 763 856 l 788 856 l 788 732 l 678 808 l 678 926 l 860 926 l 860 560 l 611 729 l 611 1000 l 926 1000 l 926 -11 m 693 1042 l 671 1031 q 579 1094 636 1094 q 497 1053 550 1094 q 396 1013 444 1013 q 315 1035 357 1013 q 256 1089 272 1057 l 278 1100 q 326 1056 290 1074 q 396 1038 363 1038 q 487 1078 435 1038 q 579 1119 539 1119 q 693 1042 651 1119 m 721 1107 l 699 1094 q 575 1158 664 1158 q 488 1117 542 1158 q 396 1076 435 1076 q 329 1098 360 1076 q 281 1153 299 1119 l 303 1164 q 396 1101 333 1101 q 479 1142 425 1101 q 575 1183 533 1183 q 663 1162 622 1183 q 721 1107 703 1140 z "},"ò":{"ha":1114,"x_min":50,"x_max":1064,"o":"m 916 852 q 990 778 916 852 q 1064 493 1064 704 q 916 135 1064 282 q 557 -11 768 -11 q 198 135 346 -11 q 50 493 50 282 q 198 852 50 704 q 557 1000 346 1000 q 916 852 768 1000 m 1024 374 l 269 879 q 127 710 178 811 q 76 493 76 608 q 217 153 76 293 q 557 13 357 13 q 851 113 721 13 q 1024 374 982 214 m 693 1021 l 421 1021 l 421 1046 l 601 1046 l 446 1135 l 446 1093 l 492 1093 l 492 1068 l 421 1068 l 421 1178 l 693 1021 z "},"ó":{"ha":1114,"x_min":50,"x_max":1064,"o":"m 916 852 q 990 778 916 852 q 1064 493 1064 704 q 916 135 1064 282 q 557 -11 768 -11 q 198 135 346 -11 q 50 493 50 282 q 198 852 50 704 q 557 1000 346 1000 q 916 852 768 1000 m 1024 374 l 269 879 q 127 710 178 811 q 76 493 76 608 q 217 153 76 293 q 557 13 357 13 q 851 113 721 13 q 1024 374 982 214 m 693 1169 l 421 1013 l 421 1122 l 492 1122 l 492 1097 l 446 1097 l 446 1056 l 601 1144 l 421 1144 l 421 1169 l 693 1169 z "},"ô":{"ha":1114,"x_min":50,"x_max":1064,"o":"m 916 852 q 990 778 916 852 q 1064 493 1064 704 q 916 135 1064 282 q 557 -11 768 -11 q 198 135 346 -11 q 50 493 50 282 q 198 852 50 704 q 557 1000 346 1000 q 916 852 768 1000 m 1024 374 l 269 879 q 127 710 178 811 q 76 493 76 608 q 217 153 76 293 q 557 13 357 13 q 851 113 721 13 q 1024 374 982 214 m 699 1031 l 685 1010 l 557 1090 l 428 1010 l 415 1031 l 557 1119 l 699 1031 m 721 1076 l 708 1054 l 557 1150 l 406 1054 l 392 1076 l 557 1179 l 721 1076 z "},"õ":{"ha":1114,"x_min":50,"x_max":1064,"o":"m 916 852 q 990 778 916 852 q 1064 493 1064 704 q 916 135 1064 282 q 557 -11 768 -11 q 198 135 346 -11 q 50 493 50 282 q 198 852 50 704 q 557 1000 346 1000 q 916 852 768 1000 m 1024 374 l 269 879 q 127 710 178 811 q 76 493 76 608 q 217 153 76 293 q 557 13 357 13 q 851 113 721 13 q 1024 374 982 214 m 761 1046 l 739 1035 q 647 1099 704 1099 q 565 1058 618 1099 q 464 1017 513 1017 q 383 1039 425 1017 q 324 1093 340 1061 l 346 1104 q 394 1060 358 1078 q 464 1042 431 1042 q 555 1083 503 1042 q 647 1124 607 1124 q 761 1046 719 1124 m 789 1111 l 767 1099 q 643 1163 732 1163 q 556 1122 610 1163 q 464 1081 503 1081 q 397 1102 428 1081 q 349 1157 367 1124 l 371 1168 q 464 1106 403 1106 q 547 1147 492 1106 q 643 1188 603 1188 q 731 1166 690 1188 q 789 1111 771 1144 z "},"ö":{"ha":1114,"x_min":50,"x_max":1064,"o":"m 916 852 q 990 778 916 852 q 1064 493 1064 704 q 916 135 1064 282 q 557 -11 768 -11 q 198 135 346 -11 q 50 493 50 282 q 198 852 50 704 q 557 1000 346 1000 q 916 852 768 1000 m 1024 374 l 269 879 q 127 710 178 811 q 76 493 76 608 q 217 153 76 293 q 557 13 357 13 q 851 113 721 13 q 1024 374 982 214 m 717 1021 l 633 1021 l 633 1089 l 658 1089 l 658 1047 l 690 1047 l 690 1122 l 601 1122 l 601 1019 l 576 1019 l 576 1147 l 717 1147 l 717 1021 m 536 1021 l 396 1021 l 396 1149 l 421 1149 l 421 1047 l 511 1047 l 511 1122 l 478 1122 l 478 1075 l 453 1075 l 453 1147 l 536 1147 l 536 1021 z "},"÷":{"ha":629,"x_min":50,"x_max":579,"o":"m 290 585 q 285 590 290 585 q 281 608 281 594 q 290 632 281 622 q 314 642 300 642 q 338 632 328 642 q 347 608 347 622 q 338 585 347 594 q 314 575 328 575 q 290 585 300 575 m 290 426 q 285 431 290 426 q 281 450 281 436 q 290 474 281 464 q 314 483 300 483 q 338 474 328 483 q 347 450 347 464 q 338 426 347 436 q 314 417 328 417 q 290 426 300 417 m 50 517 l 50 542 l 579 542 l 579 517 l 50 517 z "},"ø":{"ha":1114,"x_min":50,"x_max":1064,"o":"m 1064 493 q 916 135 1064 282 q 557 -11 768 -11 q 208 126 354 -11 l 125 43 l 107 61 l 190 144 q 50 493 50 296 q 198 852 50 704 q 557 1000 346 1000 q 906 860 758 1000 l 989 943 l 1007 926 l 924 842 q 1064 493 1064 694 m 1024 374 l 269 879 q 127 710 178 811 q 76 493 76 608 q 217 153 76 293 q 557 13 357 13 q 851 113 721 13 q 1024 374 982 214 z "},"ù":{"ha":893,"x_min":50,"x_max":843,"o":"m 843 383 q 726 104 843 219 q 446 -11 610 -11 q 165 103 281 -11 q 50 383 50 218 l 50 975 l 75 975 l 75 383 q 188 118 75 231 l 818 542 l 818 975 l 843 975 l 843 383 m 582 1013 l 310 1013 l 310 1038 l 490 1038 l 335 1126 l 335 1085 l 381 1085 l 381 1060 l 310 1060 l 310 1169 l 582 1013 z "},"ú":{"ha":893,"x_min":50,"x_max":843,"o":"m 843 383 q 726 104 843 219 q 446 -11 610 -11 q 165 103 281 -11 q 50 383 50 218 l 50 975 l 75 975 l 75 383 q 188 118 75 231 l 818 542 l 818 975 l 843 975 l 843 383 m 582 1169 l 310 1013 l 310 1122 l 381 1122 l 381 1097 l 335 1097 l 335 1056 l 490 1144 l 310 1144 l 310 1169 l 582 1169 z "},"û":{"ha":893,"x_min":50,"x_max":843,"o":"m 843 383 q 726 104 843 219 q 446 -11 610 -11 q 165 103 281 -11 q 50 383 50 218 l 50 975 l 75 975 l 75 383 q 188 118 75 231 l 818 542 l 818 975 l 843 975 l 843 383 m 589 1031 l 575 1010 l 447 1090 l 318 1010 l 306 1031 l 447 1119 l 589 1031 m 611 1076 l 599 1054 l 447 1150 l 296 1054 l 282 1076 l 447 1179 l 611 1076 z "},"ü":{"ha":893,"x_min":50,"x_max":843,"o":"m 843 383 q 726 104 843 219 q 446 -11 610 -11 q 165 103 281 -11 q 50 383 50 218 l 50 975 l 75 975 l 75 383 q 188 118 75 231 l 818 542 l 818 975 l 843 975 l 843 383 m 607 1013 l 524 1013 l 524 1081 l 549 1081 l 549 1039 l 581 1039 l 581 1114 l 492 1114 l 492 1011 l 467 1011 l 467 1139 l 607 1139 l 607 1013 m 426 1013 l 286 1013 l 286 1140 l 311 1140 l 311 1039 l 401 1039 l 401 1114 l 368 1114 l 368 1067 l 343 1067 l 343 1139 l 426 1139 l 426 1013 z "},"ý":{"ha":1232,"x_min":50,"x_max":1182,"o":"m 1182 988 l 783 503 l 783 0 l 440 0 l 440 511 l 50 988 l 440 988 l 794 556 l 1129 963 l 853 963 l 746 828 l 915 828 l 964 890 l 897 890 l 878 865 l 847 865 l 885 915 l 1017 915 l 926 803 l 693 803 l 840 988 l 1182 988 m 814 1169 l 542 1013 l 542 1122 l 613 1122 l 613 1097 l 567 1097 l 567 1056 l 722 1144 l 542 1144 l 542 1169 l 814 1169 z "},"þ":{"ha":1058,"x_min":50,"x_max":1008,"o":"m 911 751 q 960 702 911 751 q 1008 515 1008 653 q 911 281 1008 378 q 786 200 849 218 q 631 182 724 182 l 407 182 l 407 0 l 50 0 l 50 988 l 407 988 l 407 849 l 675 849 q 911 751 814 849 m 975 585 q 867 757 951 690 q 675 824 783 824 l 407 824 l 407 204 l 975 585 z "},"ÿ":{"ha":1232,"x_min":50,"x_max":1182,"o":"m 1182 988 l 783 503 l 783 0 l 440 0 l 440 511 l 50 988 l 440 988 l 794 556 l 1129 963 l 853 963 l 746 828 l 915 828 l 964 890 l 897 890 l 878 865 l 847 865 l 885 915 l 1017 915 l 926 803 l 693 803 l 840 988 l 1182 988 m 776 1013 l 693 1013 l 693 1081 l 718 1081 l 718 1039 l 750 1039 l 750 1114 l 661 1114 l 661 1011 l 636 1011 l 636 1139 l 776 1139 l 776 1013 m 596 1013 l 456 1013 l 456 1140 l 481 1140 l 481 1039 l 571 1039 l 571 1114 l 538 1114 l 538 1067 l 513 1067 l 513 1139 l 596 1139 l 596 1013 z "},"Œ":{"ha":1371,"x_min":50,"x_max":1321,"o":"m 1321 0 l 546 0 q 196 144 342 0 q 50 493 50 289 q 194 843 50 699 q 544 988 339 988 l 1279 988 l 1279 729 l 1033 729 l 1033 921 l 1200 921 l 1200 796 l 1101 796 l 1101 857 l 1126 857 l 1126 821 l 1175 821 l 1175 896 l 1058 896 l 1058 754 l 1253 754 l 1253 963 l 894 963 l 894 640 l 1247 640 l 1247 615 l 894 615 l 894 25 l 1296 25 l 1296 290 l 1056 290 l 1056 92 l 1222 92 l 1222 224 l 1132 224 l 1132 164 l 1189 164 l 1189 139 l 1107 139 l 1107 249 l 1247 249 l 1247 67 l 1031 67 l 1031 315 l 1321 315 l 1321 0 m 211 824 q 143 756 211 824 q 75 493 75 688 q 212 162 75 299 q 543 24 349 25 l 543 963 q 211 824 347 961 z "},"œ":{"ha":1371,"x_min":50,"x_max":1321,"o":"m 1321 0 l 546 0 q 196 144 342 0 q 50 493 50 289 q 194 843 50 699 q 544 988 339 988 l 1279 988 l 1279 729 l 1033 729 l 1033 921 l 1200 921 l 1200 796 l 1101 796 l 1101 857 l 1126 857 l 1126 821 l 1175 821 l 1175 896 l 1058 896 l 1058 754 l 1253 754 l 1253 963 l 894 963 l 894 640 l 1247 640 l 1247 615 l 894 615 l 894 25 l 1296 25 l 1296 290 l 1056 290 l 1056 92 l 1222 92 l 1222 224 l 1132 224 l 1132 164 l 1189 164 l 1189 139 l 1107 139 l 1107 249 l 1247 249 l 1247 67 l 1031 67 l 1031 315 l 1321 315 l 1321 0 m 211 824 q 143 756 211 824 q 75 493 75 688 q 212 162 75 299 q 543 24 349 25 l 543 963 q 211 824 347 961 z "},"Š":{"ha":813,"x_min":50,"x_max":763,"o":"m 763 774 l 596 593 l 369 764 q 501 906 392 789 l 656 789 l 571 701 l 475 774 l 519 818 l 538 801 l 513 776 l 568 735 l 617 786 l 504 872 l 407 768 l 593 626 l 733 779 q 606 922 690 869 q 421 975 521 975 q 210 902 304 975 q 86 715 117 829 q 315 569 133 685 q 593 388 496 454 q 683 213 683 324 q 624 60 683 119 q 472 0 565 0 l 169 0 l 308 204 l 531 57 l 275 57 l 319 121 l 340 106 l 324 82 l 446 82 l 315 169 l 217 25 l 472 25 q 590 68 543 25 l 218 317 q 94 451 139 369 q 50 628 50 532 q 158 891 50 782 q 421 1000 267 1000 q 625 940 535 1000 q 763 774 715 879 m 549 1179 l 563 1158 l 421 1069 l 279 1158 l 292 1179 l 421 1099 l 549 1179 m 572 1135 l 585 1113 l 421 1010 l 256 1113 l 269 1135 l 421 1039 l 572 1135 z "},"š":{"ha":813,"x_min":50,"x_max":763,"o":"m 763 774 l 596 593 l 369 764 q 501 906 392 789 l 656 789 l 571 701 l 475 774 l 519 818 l 538 801 l 513 776 l 568 735 l 617 786 l 504 872 l 407 768 l 593 626 l 733 779 q 606 922 690 869 q 421 975 521 975 q 210 902 304 975 q 86 715 117 829 q 315 569 133 685 q 593 388 496 454 q 683 213 683 324 q 624 60 683 119 q 472 0 565 0 l 169 0 l 308 204 l 531 57 l 275 57 l 319 121 l 340 106 l 324 82 l 446 82 l 315 169 l 217 25 l 472 25 q 590 68 543 25 l 218 317 q 94 451 139 369 q 50 628 50 532 q 158 891 50 782 q 421 1000 267 1000 q 625 940 535 1000 q 763 774 715 879 m 535 1179 l 549 1158 l 407 1069 l 265 1158 l 278 1179 l 407 1099 l 535 1179 m 558 1135 l 571 1113 l 407 1010 l 242 1113 l 256 1135 l 407 1039 l 558 1135 z "},"Ÿ":{"ha":1232,"x_min":50,"x_max":1182,"o":"m 1182 988 l 783 503 l 783 0 l 440 0 l 440 511 l 50 988 l 440 988 l 794 556 l 1129 963 l 853 963 l 746 828 l 915 828 l 964 890 l 897 890 l 878 865 l 847 865 l 885 915 l 1017 915 l 926 803 l 693 803 l 840 988 l 1182 988 m 810 1013 l 726 1013 l 726 1081 l 751 1081 l 751 1039 l 783 1039 l 783 1114 l 694 1114 l 694 1011 l 669 1011 l 669 1139 l 810 1139 l 810 1013 m 629 1013 l 489 1013 l 489 1140 l 514 1140 l 514 1039 l 604 1039 l 604 1114 l 571 1114 l 571 1067 l 546 1067 l 546 1139 l 629 1139 l 629 1013 z "},"Ž":{"ha":1119,"x_min":50,"x_max":1069,"o":"m 1069 988 l 483 25 l 1035 25 l 1035 328 l 803 328 l 665 101 l 961 101 l 961 253 l 881 253 l 838 182 l 915 182 l 915 157 l 793 157 l 867 278 l 986 278 l 986 75 l 621 75 l 789 353 l 1060 353 l 1060 0 l 50 0 l 633 963 l 85 963 l 85 660 l 317 660 l 454 886 l 158 886 l 158 735 l 238 735 l 282 806 l 204 806 l 204 831 l 326 831 l 251 710 l 133 710 l 133 911 l 499 911 l 331 635 l 60 635 l 60 988 l 1069 988 m 688 1179 l 701 1158 l 560 1069 l 418 1158 l 431 1179 l 560 1099 l 688 1179 m 711 1135 l 724 1113 l 560 1010 l 394 1113 l 408 1135 l 560 1039 l 711 1135 z "},"ž":{"ha":1119,"x_min":50,"x_max":1069,"o":"m 1069 988 l 483 25 l 1035 25 l 1035 328 l 803 328 l 665 101 l 961 101 l 961 253 l 881 253 l 838 182 l 915 182 l 915 157 l 793 157 l 867 278 l 986 278 l 986 75 l 621 75 l 789 353 l 1060 353 l 1060 0 l 50 0 l 633 963 l 85 963 l 85 660 l 317 660 l 454 886 l 158 886 l 158 735 l 238 735 l 282 806 l 204 806 l 204 831 l 326 831 l 251 710 l 133 710 l 133 911 l 499 911 l 331 635 l 60 635 l 60 988 l 1069 988 m 706 1179 l 719 1158 l 578 1069 l 436 1158 l 449 1179 l 578 1099 l 706 1179 m 729 1135 l 742 1113 l 578 1010 l 413 1113 l 426 1135 l 578 1039 l 729 1135 z "},"ƒ":{"ha":1140,"x_min":50,"x_max":1090,"o":"m 619 554 l 644 554 q 643 533 644 540 q 665 536 657 536 q 724 522 697 536 q 754 482 750 508 q 824 493 778 493 q 901 471 869 493 q 933 407 933 449 q 921 368 933 386 q 908 363 913 363 q 894 375 894 363 q 899 383 894 379 q 907 407 907 396 q 887 450 907 433 q 836 467 867 467 q 738 438 778 467 q 699 381 699 410 q 754 342 699 342 q 794 347 778 342 q 799 349 796 349 q 813 333 813 349 q 767 258 808 290 q 678 229 729 229 q 569 275 608 229 q 461 229 531 229 q 371 258 411 229 q 328 333 329 292 q 331 343 328 336 q 339 350 335 350 q 343 347 340 350 q 385 342 361 342 q 442 381 442 342 q 402 438 442 410 q 301 467 363 467 q 252 450 272 467 q 232 407 232 433 q 242 383 232 397 q 244 375 244 378 q 231 363 244 363 q 218 368 226 363 q 206 407 206 390 q 238 471 206 449 q 317 493 269 493 q 385 482 361 493 q 416 522 389 508 q 472 536 443 536 q 496 533 482 536 q 494 557 494 542 q 501 617 494 597 q 517 639 506 639 q 532 617 528 639 q 538 582 538 594 l 514 554 l 539 554 q 536 518 539 538 q 558 476 558 500 q 519 424 558 439 q 479 390 479 403 q 508 356 479 368 q 569 344 538 344 q 630 356 601 344 q 658 390 658 368 q 619 424 658 407 q 579 476 579 440 q 604 518 579 497 q 601 557 601 529 q 607 617 601 596 q 622 639 614 639 q 639 617 632 639 q 643 581 640 613 l 619 554 m 718 506 q 667 518 697 518 q 617 506 636 518 q 597 476 597 493 q 617 446 597 458 q 667 432 638 432 q 718 446 694 432 q 738 476 738 461 q 718 506 738 492 m 472 518 q 421 506 439 518 q 403 476 403 492 q 421 446 403 460 q 472 432 442 432 q 524 446 500 432 q 542 476 542 460 q 524 506 542 492 q 472 518 503 518 m 661 346 q 569 318 628 318 q 479 346 511 318 q 385 315 440 315 q 372 316 381 315 q 357 317 363 317 q 461 256 385 256 q 558 306 528 256 q 569 311 563 311 q 581 306 579 311 q 678 256 611 256 q 740 272 710 256 q 781 317 769 288 q 768 316 776 317 q 754 315 760 315 q 661 346 700 315 m 468 718 q 306 574 306 681 q 307 553 306 567 q 308 532 308 540 q 294 518 308 518 q 283 531 286 518 q 279 574 279 546 q 344 735 279 665 q 276 828 288 769 q 289 840 276 840 q 301 829 301 840 q 348 765 311 789 q 429 740 385 740 q 505 761 469 740 q 553 819 540 782 q 565 829 554 829 q 578 819 576 829 q 624 762 589 783 q 701 740 660 740 q 782 765 744 740 q 828 829 819 789 q 840 840 829 840 q 853 824 853 840 q 790 739 840 768 q 858 574 858 667 q 856 531 858 546 q 843 518 853 518 q 829 536 829 518 q 831 548 829 540 q 833 562 832 556 q 833 574 833 568 q 692 714 833 690 q 565 785 599 729 q 468 718 533 735 m 972 131 q 800 57 901 57 q 686 29 753 29 l 671 29 q 569 6 626 6 q 468 29 515 6 l 454 29 q 339 57 389 29 q 167 131 238 57 q 50 324 50 217 q 122 478 50 408 q 89 608 89 542 q 231 860 89 757 q 569 964 374 964 q 907 860 767 964 q 1051 608 1051 756 q 1017 478 1051 540 q 1090 324 1090 407 q 972 131 1090 217 m 844 89 q 953 149 910 101 q 997 263 997 197 q 964 363 997 315 q 960 371 960 367 q 972 385 960 385 q 983 379 978 385 q 1024 263 1024 326 q 1015 206 1024 239 q 1064 324 1064 261 q 992 465 1064 399 q 988 475 988 474 q 990 481 988 478 q 1025 608 1025 542 q 892 840 1025 743 q 569 938 758 938 q 247 840 381 938 q 115 608 115 743 q 150 481 115 542 q 151 476 151 481 q 147 465 151 469 q 76 324 76 400 q 125 206 76 258 q 117 263 117 231 q 154 379 117 328 q 167 385 163 385 q 179 371 179 385 q 176 363 179 365 q 142 263 142 317 q 186 149 142 197 q 294 89 231 101 q 229 232 229 150 q 274 354 229 301 q 285 360 279 360 q 297 347 297 360 q 293 338 297 344 q 256 232 256 292 q 305 115 256 164 q 422 57 354 67 q 346 210 346 119 q 358 225 346 225 q 372 210 372 225 q 432 82 372 133 q 569 31 492 31 q 707 82 647 31 q 767 210 767 133 q 781 225 767 225 q 793 210 793 225 q 717 57 793 117 q 834 115 785 67 q 883 232 883 164 q 844 338 883 292 q 842 347 842 346 q 854 360 842 360 q 867 354 861 360 q 910 232 910 297 q 844 89 910 150 z "},"ˆ":{"ha":429,"x_min":50,"x_max":379,"o":"m 357 1031 l 343 1010 l 215 1090 l 86 1010 l 74 1031 l 215 1119 l 357 1031 m 379 1076 l 367 1054 l 215 1150 l 64 1054 l 50 1076 l 215 1179 l 379 1076 z "},"ˇ":{"ha":429,"x_min":50,"x_max":379,"o":"m 343 1179 l 357 1158 l 215 1069 l 74 1158 l 86 1179 l 215 1099 l 343 1179 m 367 1135 l 379 1113 l 215 1010 l 50 1113 l 64 1135 l 215 1039 l 367 1135 z "},"˚":{"ha":235,"x_min":50,"x_max":185,"o":"m 165 1098 q 175 1088 165 1098 q 185 1050 185 1078 q 165 1003 185 1022 q 118 983 144 983 q 70 1003 90 983 q 50 1050 50 1024 q 70 1098 50 1078 q 118 1118 90 1118 q 165 1098 146 1118 m 160 1050 q 148 1081 160 1069 q 118 1092 136 1092 q 88 1080 100 1092 q 76 1050 76 1068 q 88 1020 76 1032 q 118 1008 100 1008 q 147 1021 135 1008 q 160 1050 160 1033 z "},"˜":{"ha":565,"x_min":50,"x_max":515,"o":"m 488 1042 l 465 1031 q 374 1094 431 1094 q 292 1053 344 1094 q 190 1013 239 1013 q 109 1035 151 1013 q 50 1089 67 1057 l 72 1100 q 121 1056 85 1074 q 190 1038 157 1038 q 281 1078 229 1038 q 374 1119 333 1119 q 488 1042 446 1119 m 515 1107 l 493 1094 q 369 1158 458 1158 q 283 1117 336 1158 q 190 1076 229 1076 q 124 1098 154 1076 q 75 1153 93 1119 l 97 1164 q 190 1101 128 1101 q 274 1142 219 1101 q 369 1183 328 1183 q 457 1162 417 1183 q 515 1107 497 1140 z "},"–":{"ha":629,"x_min":50,"x_max":579,"o":"m 50 517 l 50 542 l 579 542 l 579 517 l 50 517 z "},"—":{"ha":899,"x_min":50,"x_max":849,"o":"m 50 517 l 50 542 l 849 542 l 849 517 l 50 517 z "},"‘":{"ha":358,"x_min":50,"x_max":308,"o":"m 308 706 l 50 706 l 50 944 q 97 1058 50 1011 q 211 1106 144 1106 l 211 1081 q 115 1040 156 1081 q 75 944 75 1000 l 75 731 l 283 731 l 283 919 l 142 919 l 142 803 l 210 803 l 210 851 l 174 851 l 174 876 l 235 876 l 235 778 l 117 778 l 117 944 l 308 944 l 308 706 z "},"’":{"ha":358,"x_min":50,"x_max":308,"o":"m 308 819 q 261 706 308 753 q 147 658 214 658 l 147 683 q 243 724 203 683 q 283 819 283 764 l 283 1033 l 75 1033 l 75 844 l 217 844 l 217 961 l 149 961 l 149 913 l 185 913 l 185 888 l 124 888 l 124 986 l 242 986 l 242 819 l 50 819 l 50 1058 l 308 1058 l 308 819 z "},"‚":{"ha":358,"x_min":50,"x_max":308,"o":"m 308 0 q 260 -112 308 -65 q 147 -160 213 -160 l 147 -136 q 244 -94 204 -133 q 283 0 283 -56 l 283 214 l 75 214 l 75 25 l 217 25 l 217 142 l 149 142 l 149 93 l 185 93 l 185 68 l 124 68 l 124 167 l 242 167 l 242 0 l 50 0 l 50 239 l 308 239 l 308 0 z "},"“":{"ha":650,"x_min":50,"x_max":600,"o":"m 308 706 l 50 706 l 50 944 q 97 1058 50 1011 q 211 1106 144 1106 l 211 1081 q 115 1040 156 1081 q 75 944 75 1000 l 75 731 l 283 731 l 283 919 l 142 919 l 142 803 l 210 803 l 210 851 l 174 851 l 174 876 l 235 876 l 235 778 l 117 778 l 117 944 l 308 944 l 308 706 m 600 706 l 342 706 l 342 944 q 389 1058 342 1011 q 503 1106 436 1106 l 503 1081 q 407 1040 447 1081 q 367 944 367 1000 l 367 731 l 575 731 l 575 919 l 433 919 l 433 803 l 501 803 l 501 851 l 465 851 l 465 876 l 526 876 l 526 778 l 408 778 l 408 944 l 600 944 l 600 706 z "},"”":{"ha":650,"x_min":50,"x_max":600,"o":"m 308 819 q 261 706 308 753 q 147 658 214 658 l 147 683 q 243 724 203 683 q 283 819 283 764 l 283 1033 l 75 1033 l 75 844 l 217 844 l 217 961 l 149 961 l 149 913 l 185 913 l 185 888 l 124 888 l 124 986 l 242 986 l 242 819 l 50 819 l 50 1058 l 308 1058 l 308 819 m 600 819 q 553 706 600 753 q 439 658 506 658 l 439 683 q 535 724 494 683 q 575 819 575 764 l 575 1033 l 367 1033 l 367 844 l 508 844 l 508 961 l 440 961 l 440 913 l 476 913 l 476 888 l 415 888 l 415 986 l 533 986 l 533 819 l 342 819 l 342 1058 l 600 1058 l 600 819 z "},"„":{"ha":650,"x_min":50,"x_max":600,"o":"m 308 0 q 260 -112 308 -65 q 147 -160 213 -160 l 147 -136 q 244 -94 204 -133 q 283 0 283 -56 l 283 214 l 75 214 l 75 25 l 217 25 l 217 142 l 149 142 l 149 93 l 185 93 l 185 68 l 124 68 l 124 167 l 242 167 l 242 0 l 50 0 l 50 239 l 308 239 l 308 0 m 600 0 q 552 -112 600 -65 q 439 -160 504 -160 l 439 -136 q 535 -94 496 -133 q 575 0 575 -56 l 575 214 l 367 214 l 367 25 l 508 25 l 508 142 l 440 142 l 440 93 l 476 93 l 476 68 l 415 68 l 415 167 l 533 167 l 533 0 l 342 0 l 342 239 l 600 239 l 600 0 z "},"†":{"ha":1193,"x_min":50,"x_max":1143,"o":"m 599 -208 l 425 -42 l 425 599 q 384 690 425 651 q 289 729 343 729 l 75 729 l 75 521 l 264 521 l 264 663 l 147 663 l 147 594 l 196 594 l 196 631 l 221 631 l 221 569 l 122 569 l 122 688 l 289 688 l 289 496 l 50 496 l 50 754 l 289 754 q 425 679 376 754 l 425 988 l 768 988 l 768 657 q 808 561 768 601 q 904 521 849 521 l 1118 521 l 1118 729 l 929 729 l 929 588 l 1046 588 l 1046 656 l 997 656 l 997 619 l 972 619 l 972 681 l 1071 681 l 1071 563 l 904 563 l 904 754 l 1143 754 l 1143 496 l 904 496 q 768 571 814 496 l 768 -42 l 599 -208 z "},"‡":{"ha":1193,"x_min":50,"x_max":1143,"o":"m 599 -208 l 425 -42 l 425 128 q 384 219 425 181 q 289 258 343 258 l 75 258 l 75 50 l 264 50 l 264 192 l 147 192 l 147 124 l 196 124 l 196 160 l 221 160 l 221 99 l 122 99 l 122 217 l 289 217 l 289 25 l 50 25 l 50 283 l 289 283 q 425 208 379 283 l 425 599 q 384 690 425 651 q 289 729 343 729 l 75 729 l 75 521 l 264 521 l 264 663 l 147 663 l 147 594 l 196 594 l 196 631 l 221 631 l 221 569 l 122 569 l 122 688 l 289 688 l 289 496 l 50 496 l 50 754 l 289 754 q 425 679 376 754 l 425 821 l 594 988 l 768 821 l 768 657 q 808 561 768 601 q 904 521 849 521 l 1118 521 l 1118 729 l 929 729 l 929 588 l 1046 588 l 1046 656 l 997 656 l 997 619 l 972 619 l 972 681 l 1071 681 l 1071 563 l 904 563 l 904 754 l 1143 754 l 1143 496 l 904 496 q 768 571 814 496 l 768 181 q 809 89 768 128 q 904 50 850 50 l 1118 50 l 1118 258 l 929 258 l 929 117 l 1046 117 l 1046 185 l 997 185 l 997 149 l 972 149 l 972 210 l 1071 210 l 1071 92 l 904 92 l 904 283 l 1143 283 l 1143 25 l 904 25 q 768 100 817 25 l 768 -42 l 599 -208 z "},"•":{"ha":382,"x_min":50,"x_max":332,"o":"m 91 430 q 70 450 91 430 q 50 529 50 471 q 91 629 50 588 q 190 671 132 671 q 290 629 249 671 q 332 529 332 588 q 290 430 332 471 q 190 389 249 389 q 91 430 132 389 z "},"…":{"ha":950,"x_min":50,"x_max":900,"o":"m 289 0 l 50 0 l 50 258 l 289 258 l 289 233 l 75 233 l 75 25 l 264 25 l 264 167 l 146 167 l 146 97 l 196 97 l 196 135 l 221 135 l 221 72 l 121 72 l 121 192 l 289 192 l 289 0 m 594 0 l 356 0 l 356 258 l 594 258 l 594 233 l 381 233 l 381 25 l 569 25 l 569 167 l 451 167 l 451 97 l 501 97 l 501 135 l 526 135 l 526 72 l 426 72 l 426 192 l 594 192 l 594 0 m 900 0 l 661 0 l 661 258 l 900 258 l 900 233 l 686 233 l 686 25 l 875 25 l 875 167 l 757 167 l 757 97 l 807 97 l 807 135 l 832 135 l 832 72 l 732 72 l 732 192 l 900 192 l 900 0 z "},"‰":{"ha":1158,"x_min":50,"x_max":1108,"o":"m 443 920 q 476 886 443 920 q 510 757 510 853 q 443 595 510 661 q 281 529 376 529 q 117 595 185 529 q 50 757 50 661 q 117 920 50 853 q 281 988 185 988 q 443 920 376 988 m 475 703 l 156 917 q 79 757 79 856 q 138 614 79 672 q 281 556 196 556 q 402 596 349 556 q 475 703 456 636 m 836 391 q 869 357 836 391 q 903 228 903 324 q 836 66 903 132 q 674 0 769 0 q 510 66 578 0 q 443 228 443 132 q 510 391 443 324 q 674 458 578 458 q 836 391 769 458 m 868 174 l 549 388 q 472 228 472 326 q 531 85 472 143 q 674 26 589 26 q 795 67 742 26 q 868 174 849 107 m 278 0 l 249 0 l 689 988 l 717 988 l 278 0 m 1042 856 q 1075 823 1042 856 q 1108 693 1108 789 q 1042 531 1108 597 q 879 465 975 465 q 716 531 783 465 q 649 693 649 597 q 716 856 649 789 q 879 924 783 924 q 1042 856 975 924 m 1074 639 l 754 853 q 678 693 678 792 q 736 550 678 608 q 879 492 794 492 q 1001 532 947 492 q 1074 639 1054 572 z "},"‹":{"ha":311,"x_min":50,"x_max":261,"o":"m 50 454 l 50 478 l 261 611 l 261 582 l 76 465 l 261 349 l 261 319 l 50 454 z "},"›":{"ha":311,"x_min":50,"x_max":261,"o":"m 261 478 l 261 454 l 50 319 l 50 349 l 235 465 l 50 582 l 50 611 l 261 478 z "},"€":{"ha":833,"x_min":50,"x_max":783,"o":"m 783 624 l 428 624 l 428 581 l 688 581 l 688 556 l 428 556 q 427 473 428 528 q 426 392 426 418 q 428 310 426 336 q 497 303 456 303 q 668 351 586 303 l 682 331 q 496 276 596 276 q 276 355 372 276 q 156 556 179 433 l 50 556 l 50 581 l 151 581 q 150 602 151 588 q 149 624 149 617 l 50 624 l 50 649 l 150 649 q 260 878 160 785 q 496 972 360 972 q 757 854 651 972 l 757 960 l 782 960 l 782 818 l 760 811 q 479 946 664 946 q 428 939 451 946 l 428 649 l 783 649 l 783 624 z "},"™":{"ha":993,"x_min":50,"x_max":943,"o":"m 479 835 l 364 835 l 364 951 l 444 951 l 444 865 l 394 865 l 394 918 l 414 918 l 414 885 l 426 885 l 426 932 l 383 932 l 383 854 l 460 854 l 460 965 l 343 965 l 343 542 l 186 542 l 186 965 l 69 965 l 69 854 l 146 854 l 146 932 l 103 932 l 103 885 l 115 885 l 115 918 l 136 918 l 136 865 l 85 865 l 85 951 l 165 951 l 165 835 l 50 835 l 50 983 l 479 983 l 479 835 m 943 542 l 796 542 l 796 660 l 913 742 l 913 578 l 825 578 l 825 635 l 883 674 l 883 608 l 864 608 l 864 639 l 846 625 l 846 597 l 894 597 l 894 707 q 855 679 881 699 q 815 650 829 660 l 815 561 l 924 561 l 924 790 l 722 651 l 521 790 l 521 561 l 628 561 l 628 650 q 588 678 613 660 q 549 707 563 697 l 549 597 l 599 597 l 599 626 l 581 639 l 581 608 l 561 608 l 561 675 l 618 635 l 618 578 l 531 578 l 531 742 l 647 660 l 647 542 l 501 542 l 501 996 l 722 844 l 943 996 l 943 542 z "},"−":{"ha":629,"x_min":50,"x_max":579,"o":"m 50 517 l 50 542 l 579 542 l 579 517 l 50 517 z "}}}
